<?xml version="1.0" encoding="UTF-8" standalone="no"?>
<!-- Generator: Adobe Illustrator 24.1.2, SVG Export Plug-In . SVG Version: 6.00 Build 0)  -->

<svg
   version="1.1"
   x="0px"
   y="0px"
   viewBox="0 0 6826.6666 1920"
   xml:space="preserve"
   id="svg180"
   width="1280"
   height="360"
   xmlns="http://www.w3.org/2000/svg"
   xmlns:svg="http://www.w3.org/2000/svg"><defs
   id="defs180" />
<style
   type="text/css"
   id="style1">
	.st0{fill:url(#SVGID_1_);}
	.st1{fill:#010101;}
	.st2{opacity:0.57;fill:url(#SVGID_2_);}
	.st3{fill:url(#SVGID_3_);}
	.st4{fill:url(#SVGID_4_);}
	.st5{fill:url(#SVGID_5_);}
	.st6{fill:url(#SVGID_6_);}
	.st7{fill:url(#SVGID_7_);}
	.st8{fill:url(#SVGID_8_);}
	.st9{fill:url(#SVGID_9_);}
	.st10{fill:url(#SVGID_10_);}
	.st11{fill:url(#SVGID_11_);}
	.st12{fill:url(#SVGID_12_);}
	.st13{fill:url(#SVGID_13_);}
	.st14{fill:url(#SVGID_14_);}
	.st15{fill:url(#SVGID_15_);}
	.st16{fill:url(#SVGID_16_);}
	.st17{fill:url(#SVGID_17_);}
	.st18{fill:url(#SVGID_18_);}
	.st19{fill:url(#SVGID_19_);}
	.st20{fill:url(#SVGID_20_);}
	.st21{fill:url(#SVGID_21_);}
	.st22{fill:url(#SVGID_22_);}
	.st23{fill:url(#SVGID_23_);}
	.st24{fill:url(#SVGID_24_);}
	.st25{fill:url(#SVGID_25_);}
	.st26{fill:url(#SVGID_26_);}
	.st27{fill:url(#SVGID_27_);}
	.st28{fill:url(#SVGID_28_);}
	.st29{fill:url(#SVGID_29_);}
	.st30{fill:url(#SVGID_30_);}
	.st31{fill:url(#SVGID_31_);}
	.st32{fill:url(#SVGID_32_);}
	.st33{fill:url(#SVGID_33_);}
	.st34{fill:url(#SVGID_34_);}
	.st35{fill:url(#SVGID_35_);}
	.st36{fill:url(#SVGID_36_);}
	.st37{fill:url(#SVGID_37_);}
	.st38{fill:#B78559;}
	.st39{fill:url(#SVGID_38_);}
	.st40{fill:url(#SVGID_39_);}
	.st41{fill:url(#SVGID_40_);}
	.st42{fill:url(#SVGID_41_);}
	.st43{fill:url(#SVGID_42_);}
	.st44{fill:url(#SVGID_43_);}
	.st45{fill:url(#SVGID_44_);}
	.st46{fill:url(#SVGID_45_);}
	.st47{fill:#CEA55B;}
	.st48{fill:url(#SVGID_46_);}
	.st49{fill:url(#SVGID_47_);}
	.st50{fill:url(#SVGID_48_);}
	.st51{fill:url(#SVGID_49_);}
	.st52{fill:url(#SVGID_50_);}
	.st53{fill:url(#SVGID_51_);}
	.st54{fill:url(#SVGID_52_);}
	.st55{fill:url(#SVGID_53_);}
	.st56{fill:#FFD797;}
	.st57{fill:url(#SVGID_54_);}
	.st58{opacity:0.58;fill:#1D1D1B;}
	.st59{fill:url(#SVGID_55_);}
	.st60{fill:url(#SVGID_56_);}
	.st61{opacity:0.29;fill:#010101;}
	.st62{fill:url(#SVGID_57_);}
	.st63{fill:url(#SVGID_58_);}
	.st64{fill:url(#SVGID_59_);}
	.st65{fill:url(#SVGID_60_);}
	.st66{fill:url(#SVGID_61_);}
	.st67{fill:url(#SVGID_62_);}
	.st68{fill:url(#SVGID_63_);}
	.st69{fill:url(#SVGID_64_);}
	.st70{fill:url(#SVGID_65_);}
	.st71{fill:url(#SVGID_66_);}
	.st72{fill:url(#SVGID_67_);}
	.st73{fill:url(#SVGID_68_);}
	.st74{fill:url(#SVGID_69_);}
	.st75{fill:url(#SVGID_70_);}
	.st76{fill:url(#SVGID_71_);}
	.st77{fill:url(#SVGID_72_);}
	.st78{fill:url(#SVGID_73_);}
	.st79{fill:url(#SVGID_74_);}
	.st80{fill:url(#SVGID_75_);}
	.st81{fill:url(#SVGID_76_);}
	.st82{fill:url(#SVGID_77_);}
	.st83{fill:url(#SVGID_78_);}
	.st84{fill:url(#SVGID_79_);}
	.st85{fill:url(#SVGID_80_);}
	.st86{fill:url(#SVGID_81_);}
	.st87{fill:url(#SVGID_82_);}
	.st88{fill:url(#SVGID_83_);}
	.st89{fill:url(#SVGID_84_);}
</style>



<g
   id="g182"
   transform="translate(2055.8496,22.099995)"><g
     id="Слой_3"
     transform="translate(-515.14639,-54.2)">
	<g
   id="g10">
		<path
   class="st1"
   d="m 2954,103.3 c -11.7,-29.5 -42,-48.9 -76.7,-49.1 -9.9,0.4 -24.7,2.3 -41.2,9.3 -15.5,6.6 -26.9,15.3 -34.3,22 -186.2,50.4 -468.3,154.7 -755.1,384.2 -187.2,149.8 -322.7,310 -416.7,441 l -2.9,5.3 c -3.6,-3.8 -9.4,-9.1 -17.5,-13.1 -6.7,-3.3 -12.7,-4.8 -17.1,-5.4 -3.3,-0.4 -7.1,-0.4 -11.2,0.1 -14.2,1.9 -24.1,10.3 -28.8,14.9 6.2,-0.7 28.3,-2.5 47,13.7 6.1,5.3 10.3,11.2 13.2,16.1 -3.2,-0.4 -10.6,-0.8 -17.7,3.9 -9.5,6.2 -14.7,18.9 -13.5,32.5 5.5,-12.5 17.1,-19.8 28.7,-18.3 13,1.6 20,13.4 21,15 27.9,66 46.5,122.4 58.9,164.3 13.7,46.5 18.8,72.1 17.1,103 -2.6,47.5 -19.9,83.8 -32.4,104.9 77.6,41.3 155.2,82.7 232.8,124 0,-5.6 1.1,-10.2 2.8,-14.1 12,-27.3 62.4,-33.2 125,-19 C 2015,1417 2012,1400 2012,1390 c 0.2,-53.6 88.7,-95.3 153.4,-107.3 29,-5.4 51.8,-4.6 68.9,-3.7 46.2,2.5 110.3,9.1 190.1,27 36.5,12.4 54.5,22.8 53.9,31.2 -0.3,4.3 -5.3,8 -15,11.3 12.9,3.7 24.5,1.7 28.7,-5.5 5.6,-9.7 -4.3,-25.3 -10.1,-34.4 -5,-7.8 -15.6,-21.9 -36.1,-32.2 0,0 0,0 0,0 -19.2,-31.4 -39.6,-71.9 -55.5,-121.1 -9.1,-28.4 -43,-134.1 -24.5,-221.3 27.1,-127.6 168.6,-225.9 348.4,-246.1 5.8,0.2 12.9,1.9 18.9,7.8 5.3,5.3 7.5,11.6 8.3,15.1 4.9,-7.8 5.8,-14 5.3,-18.8 -2.2,-24.3 -42.3,-45.6 -100.1,-53.1 0,0 0,0 0,0 -31.4,-26.4 -62.9,-63.7 -77.1,-113.9 -37.6,-131.9 54.8,-314.4 246.1,-387.6 20.1,-29.1 53,-43.2 84.4,-35.8 37.3,8.7 55,43.6 57.4,48.5 1.9,-9.1 4.2,-27.5 -3.4,-46.8 z"
   id="path2" />
		
			<linearGradient
   id="SVGID_2_"
   gradientUnits="userSpaceOnUse"
   x1="1626.1077"
   y1="1309.8038"
   x2="2373.6821"
   y2="737.88892"
   gradientTransform="matrix(0.9881,-0.1536,0.1536,0.9881,-91.3805,372.4657)">
			<stop
   offset="0"
   style="stop-color:#98764D"
   id="stop3" />
			<stop
   offset="1"
   style="stop-color:#B29762"
   id="stop4" />
		</linearGradient>
		<path
   class="st2"
   d="m 2643.1,151.6 c -27,10.3 -53.9,20.8 -80.4,32.2 l -10,4.2 -9.9,4.4 -19.8,8.7 -19.7,9 c -6.6,3 -13.1,6 -19.6,9.2 l -19.5,9.4 -4.9,2.3 -4.8,2.4 -9.7,4.9 -19.4,9.7 -19.2,10 c -25.6,13.4 -50.8,27.6 -75.9,42 -3.2,1.8 -6.2,3.6 -9.4,5.5 l -9.3,5.5 -18.6,11.1 -18.4,11.4 c -6.1,3.8 -12.3,7.6 -18.4,11.5 -48.8,31.1 -96.1,64.5 -142.4,99.2 l -34.3,26.6 -8.6,6.7 -8.4,6.9 -16.8,13.8 -16.8,13.8 -4.2,3.5 -4.1,3.6 -8.2,7.1 c -10.9,9.5 -21.9,19 -32.7,28.6 l -32,29.4 -8,7.4 c -2.6,2.5 -5.2,5 -7.8,7.5 l -15.6,15.1 -15.6,15.1 c -5.1,5.1 -10.2,10.3 -15.2,15.5 l -15.2,15.5 -7.6,7.8 c -2.5,2.6 -4.9,5.3 -7.4,7.9 -40,41.9 -77.9,85.7 -114.3,130.7 l -6.9,8.4 -6.7,8.5 -13.4,17.1 -6.7,8.5 -6.5,8.7 -13,17.4 -6.5,8.7 -6.3,8.8 -12.7,17.6 c -4.3,5.8 -8.3,11.8 -12.5,17.8 l -12.4,17.8 v 0 c -0.9,1.3 -1.1,3 -0.6,4.5 v 0 l 16.6,47.6 16.7,47.6 c 11.1,31.7 22.4,63.4 33.1,95.1 5.2,15.9 10.2,31.9 13,48.2 1.4,8.2 2.1,16.4 2.5,24.8 0.4,8.3 0.4,16.7 -0.1,25 -0.5,8.3 -1.3,16.6 -2.6,24.9 -1.2,8.3 -2.9,16.5 -4.8,24.6 -3.9,16.3 -9.2,32.3 -15.5,47.8 7,-15.3 12.8,-31.1 17.3,-47.4 4.5,-16.2 7.5,-32.9 9,-49.8 1.4,-16.9 1.3,-33.9 -1,-50.8 -2.4,-16.9 -7.1,-33.2 -11.9,-49.3 -4.9,-16.1 -10.1,-32.1 -15.3,-48.1 l -15.7,-47.9 -15.7,-47.9 -12.4,-37.6 c 67.8,13.1 135.1,29.6 201.3,49.5 33.6,10.1 66.9,21.1 100,32.9 33,11.8 65.8,24.5 98.2,38.1 32.4,13.6 64.4,27.9 96.1,43.1 31.7,15.1 62.9,31.2 93.8,48 61.7,33.6 121.7,70.5 179.7,110.3 -57.3,-40.8 -116.7,-78.6 -178,-113.3 -30.6,-17.3 -61.7,-34 -93.2,-49.7 -31.5,-15.7 -63.4,-30.6 -95.7,-44.8 -32.2,-14.2 -64.9,-27.4 -97.9,-39.8 -33,-12.4 -66.3,-24 -99.9,-34.7 -60.9,-19.5 -122.7,-35.9 -185.2,-49.6 70.9,-30.9 142.8,-59.5 215.5,-85.8 10,-3.6 19.9,-7.2 29.9,-10.7 l 30,-10.5 30.1,-10.1 c 5,-1.7 10.1,-3.4 15.1,-5 l 15.1,-4.9 15.1,-4.9 15.2,-4.8 c 10.1,-3.2 20.2,-6.4 30.4,-9.4 l 30.4,-9.2 30.5,-8.8 c 5.1,-1.5 10.2,-2.9 15.3,-4.3 l 15.3,-4.2 15.3,-4.2 15.4,-4.1 c 10.3,-2.7 20.5,-5.5 30.8,-8.1 10.3,-2.6 20.5,-5.3 30.8,-7.8 41.2,-10.2 82.5,-19.7 124,-28.5 41.5,-8.8 83.2,-16.8 125,-24.2 41.8,-7.4 83.7,-13.9 125.7,-19.8 -42.1,5.3 -84.2,11.2 -126.1,17.9 -41.9,6.7 -83.7,14.1 -125.4,22.2 -41.7,8.2 -83.2,17 -124.6,26.6 -10.4,2.3 -20.7,4.9 -31,7.3 -10.3,2.5 -20.6,5.1 -30.9,7.6 l -15.5,3.8 -15.4,4 -15.4,4 c -5.1,1.3 -10.3,2.7 -15.4,4.1 l -30.7,8.4 -30.7,8.7 c -10.2,2.9 -20.4,5.9 -30.6,8.9 l -15.3,4.5 -15.2,4.7 -15.2,4.7 c -5.1,1.6 -10.2,3.1 -15.2,4.8 l -30.4,9.7 -30.3,10 c -10.1,3.3 -20.1,6.9 -30.2,10.3 -75.1,25.9 -149.5,54.2 -222.9,84.9 63.3,-87.9 132.4,-171.7 207.3,-249.8 2.5,-2.6 4.9,-5.2 7.4,-7.8 l 7.6,-7.7 15.2,-15.3 c 5.1,-5.1 10.1,-10.3 15.2,-15.3 l 15.5,-15 15.5,-15 c 2.6,-2.5 5.2,-5 7.8,-7.5 l 7.9,-7.3 31.8,-29.2 c 10.8,-9.5 21.6,-18.9 32.5,-28.4 l 8.1,-7.1 4.1,-3.5 4.2,-3.4 16.6,-13.8 16.6,-13.8 8.3,-6.9 8.5,-6.7 34,-26.6 4.2,-3.3 2.1,-1.7 2.2,-1.6 8.7,-6.4 17.3,-12.9 17.3,-12.9 4.3,-3.2 c 1.4,-1.1 2.9,-2.1 4.4,-3.1 l 8.8,-6.2 35.4,-24.7 4.4,-3.1 c 1.5,-1 3,-2 4.5,-3 l 9,-6 18,-11.9 c 48.1,-31.6 97.6,-61.1 148.1,-88.8 l 18.9,-10.4 19.1,-10.1 9.6,-5 4.8,-2.5 4.8,-2.4 19.3,-9.8 c 6.4,-3.3 12.9,-6.4 19.4,-9.6 l 19.4,-9.5 19.6,-9.2 9.8,-4.6 9.8,-4.5 19.7,-8.9 19.8,-8.6 9.9,-4.3 10,-4.2 19.9,-8.4 c 26.7,-10.9 53.5,-21.5 80.6,-31.6 -27.5,9.3 -54.7,18.9 -81.8,29 z"
   id="path4"
   style="fill:url(#SVGID_2_)" />
		
			<linearGradient
   id="SVGID_3_"
   gradientUnits="userSpaceOnUse"
   x1="1363.8602"
   y1="967.00879"
   x2="2111.4346"
   y2="395.0939"
   gradientTransform="matrix(0.9881,-0.1536,0.1536,0.9881,-91.3805,372.4657)">
			<stop
   offset="0"
   style="stop-color:#98764D"
   id="stop5" />
			<stop
   offset="1"
   style="stop-color:#B29762"
   id="stop6" />
		</linearGradient>
		<path
   class="st3"
   d="m 1565.6,905.4 c 3.8,-0.8 17.8,-3.1 32.3,4.8 16.6,9.1 21.7,25 22.6,28.2 0.1,-2.9 0.5,-7.1 2.1,-11.7 1.1,-3.2 2.5,-5.8 3.8,-7.7 -3.5,-3.6 -15,-14.8 -33.5,-17.1 -12.4,-1.7 -22.4,1.5 -27.3,3.5 z"
   id="path6"
   style="fill:url(#SVGID_3_)" />
		
			<linearGradient
   id="SVGID_4_"
   gradientUnits="userSpaceOnUse"
   x1="1382.9128"
   y1="991.91333"
   x2="2130.4873"
   y2="419.99841"
   gradientTransform="matrix(0.9881,-0.1536,0.1536,0.9881,-91.3805,372.4657)">
			<stop
   offset="0"
   style="stop-color:#98764D"
   id="stop7" />
			<stop
   offset="1"
   style="stop-color:#B29762"
   id="stop8" />
		</linearGradient>
		<path
   class="st4"
   d="m 1583.9,968.4 c 1,-1.7 7.5,-12.5 20.3,-14.5 6.5,-1 11.9,0.6 14.6,1.7 -2.1,-4 -4.3,-8 -6.4,-11.9 -3.1,0.1 -7.3,0.7 -11.8,2.9 -12.6,6 -16.1,19.4 -16.7,21.8 z"
   id="path8"
   style="fill:url(#SVGID_4_)" />
		
			<linearGradient
   id="SVGID_5_"
   gradientUnits="userSpaceOnUse"
   x1="1743.6194"
   y1="1463.4083"
   x2="2491.1938"
   y2="891.49353"
   gradientTransform="matrix(0.9881,-0.1536,0.1536,0.9881,-91.3805,372.4657)">
			<stop
   offset="0"
   style="stop-color:#DAA96F"
   id="stop9" />
			<stop
   offset="1"
   style="stop-color:#F1DDBA"
   id="stop10" />
		</linearGradient>
		<path
   class="st5"
   d="m 2649.7,645.8 c 19.6,3 31.2,13.2 30.5,21.1 -0.5,6 -8.1,10.1 -10.3,11.2 4.3,-1.4 34.2,-10.2 57.6,7.2 6.7,5 11.2,11 14.2,16.1 0.5,-3.5 0.3,-6.7 -0.2,-9.6 -7.3,-36.1 -86.4,-45.4 -91.8,-46 z"
   id="path10"
   style="fill:url(#SVGID_5_)" />
	</g>
	<linearGradient
   id="SVGID_6_"
   gradientUnits="userSpaceOnUse"
   x1="1746.772"
   y1="1645.1272"
   x2="1845.3007"
   y2="1790.8328">
		<stop
   offset="0"
   style="stop-color:#DAA96F"
   id="stop11" />
		<stop
   offset="1"
   style="stop-color:#F1DDBA"
   id="stop12" />
	</linearGradient>
	<path
   class="st6"
   d="m 1898,1763.5 c -0.5,2.4 -1.9,7.4 -6.1,11.5 -7.4,7.2 -17.8,6.1 -20.3,5.8 -7.1,-0.8 -7,-3.5 -17.4,-6.8 -3.9,-1.3 -12.7,-3.7 -23.1,-3.2 -7.7,0.4 -13.5,2.2 -18,3.7 -22.5,7.7 -50.4,21.4 -57.7,25 21.4,-4.3 45.5,-8 72.1,-10.2 26.8,-2.2 51.5,-2.5 73.4,-1.8 8.9,-5.4 17.9,-10.9 26.8,-16.3 -9.5,-3.7 -19.1,-7.5 -28.6,-11.2 -0.3,1.1 -0.7,2.3 -1.1,3.5 z"
   id="path12"
   style="fill:url(#SVGID_6_)" />
	<path
   class="st1"
   d="m 2042.9,1589.6 -53.6,18.8 c -18,-11.4 -36,-22.8 -54,-34.2 l -92.6,39.9 c 2.9,18.4 9.1,45.9 23.8,74.8 22,43.2 50.9,66 66,76.3 -11.2,6 -22.3,12 -33.5,18 -2.9,0.8 -6,1.5 -9.3,1.9 -16,2 -29.5,-2.9 -38.4,-7.5 -3.5,-1.4 -8.1,-2.9 -13.4,-3.5 -6.3,-0.8 -11.7,-0.3 -15.8,0.4 -17.7,5.5 -36.5,12.2 -56,20.3 -4,1.7 -8,3.4 -11.9,5.1 0,0 0,0 0,0 0.4,-1.5 0.9,-3.1 1.7,-4.8 2.6,-5.6 6.5,-8.6 8.7,-10 -11.7,1.7 -27.9,5.6 -45.8,15.5 -23.5,13 -39.5,30.6 -48.7,42.4 4.4,-2.3 9,-4.6 13.9,-6.8 25.7,-5.6 54.3,-10.2 85.5,-12.5 20.1,-1.5 39.2,-1.9 57.1,-1.5 -8.1,3.5 -15,5.7 -20.1,7.1 -0.1,-0.1 -0.2,-0.1 -0.3,-0.2 -1.8,1.3 -3.5,2.7 -5.3,4 0,0 0,0 0,0 -16.5,1.9 -39.3,6.5 -64.3,17.8 -33.3,15 -55.9,35.3 -68.9,49 6.2,-2.7 12.8,-5.3 19.6,-7.9 36.4,-6.5 76.9,-11.8 121,-14.4 28.5,-1.7 55.5,-2.2 80.8,-1.7 -11.4,4.1 -21.2,6.6 -28.4,8.3 -0.1,-0.1 -0.3,-0.2 -0.4,-0.2 l -10.7,-4.5 c -6.6,1.7 -15.8,5 -25.3,11.7 -18.4,13.2 -25.6,31.1 -28.1,38.6 18.8,-8.7 41.1,-17.2 66.7,-23.5 7.9,-1.4 13.9,-3 17.7,-3.9 3.5,-0.7 7,-1.3 10.3,-1.9 11.1,-1.4 26.4,-1.9 50.7,-2.7 32.8,-1 45.4,-0.9 70.1,-1 18.1,-0.1 44.7,-0.8 77.3,-3.3 0,0 -0.1,-0.1 -0.1,-0.1 18.7,0.5 37.8,-1.4 58.7,-8.8 7.8,-2.8 14.8,-5.9 21.2,-9.3 21.6,-11.4 36.9,-32.2 41.2,-56.2 0,-0.1 0.1,-0.3 0.1,-0.4 6.8,-38.5 -3.1,-70.4 -9.5,-86.6 8.6,-2.1 18,-5 27.8,-9.1 32.2,-13.6 54.1,-33.9 67.4,-49 -84.5,-28.2 -168.7,-56.3 -252.9,-84.4 z"
   id="path13" />
	<path
   class="st1"
   d="m 1818.2,1651.4 c 4.8,16.3 14.4,41.3 34,67.1 18.2,23.9 38.1,39.2 51.9,48.1 -0.5,3.4 -1.8,8.6 -5.9,12.7 -5.2,5.3 -12.2,6 -15.1,6.3 -20.9,2.4 -50.3,9.5 -50.3,10.9 0,1.5 31,3.7 131.4,7 l -4.1,-57.5 -39.4,-113.5 -53.5,-11.8 z"
   id="path14" />
	<path
   class="st1"
   d="m 1799.8,1873.1 c -4.1,2.3 -8.6,5.3 -13,9.1 -14,11.9 -21.2,25.9 -24.8,35 51.1,-12.5 102.3,-25 153.4,-37.5 l -45.2,-29.1 z"
   id="path15" />
	<linearGradient
   id="SVGID_7_"
   gradientUnits="userSpaceOnUse"
   x1="1488.5118"
   y1="1240.9448"
   x2="1279.5173"
   y2="1451.3708">
		<stop
   offset="0"
   style="stop-color:#DAA96F"
   id="stop15" />
		<stop
   offset="1"
   style="stop-color:#F1DDBA"
   id="stop16" />
	</linearGradient>
	<path
   class="st7"
   d="m 1172,1093 c 9.1,4.3 25.1,12.7 42.3,26.6 112.8,91.3 64,249 138.2,385.7 26.3,48.5 79.2,114.8 198.6,167.6 6.4,-5.8 12.7,-11.6 19.1,-17.4 l -257.2,-588.8 -128.1,-16.3 -30.6,30.1 c 6,4.2 11.8,8.4 17.7,12.5 z"
   id="path16"
   style="fill:url(#SVGID_7_)" />
	<path
   class="st1"
   d="m 2215.2,1466.3 c -14.8,-2.7 -36,-8 -59,-19.9 -25.2,-13 -40.5,-27.8 -51.3,-37.5 -19.6,-17.6 -46.5,-35.3 -100.3,-70.5 -86.6,-56.6 -145.1,-93.9 -220.6,-91.3 -23.5,0.8 -22,4.5 -44.5,4.7 -71.5,0.7 -129.4,-36.9 -167.7,-69.7 -0.6,-2.5 -1.2,-7 0.5,-12 4.1,-12 17.6,-15.3 18.6,-15.6 -5.5,-2.7 -12.4,-5.3 -20.7,-6.9 -23.6,-4.5 -43.2,2.8 -52.1,6.9 2.1,-6.9 7.9,-22.9 23.2,-36.5 17.3,-15.4 36.4,-18.6 43.4,-19.4 -9.8,-5.5 -24.2,-11.9 -42.4,-15.1 -34.7,-6 -62.8,3.6 -75.6,8.9 5.4,-7.8 21.7,-28.9 50.8,-37.3 13,-3.7 24.5,-3.8 32.7,-3.1 -7.2,-4.8 -15.7,-9.6 -25.5,-13.5 -39.5,-16 -76.8,-9.8 -95.5,-5.1 2.3,-3.9 6.5,-10 13.7,-15 13.5,-9.4 27.8,-8.6 32.3,-8.2 -11.1,-5.4 -22.8,-10.7 -35.1,-15.7 -47.2,-19.2 -91.9,-30.2 -131.2,-36.3 -46.2,43.2 -92.5,86.4 -138.7,129.5 14.5,5.1 38,15.1 61.4,34.4 103.3,85.2 55.7,230.5 125.6,366.1 25.7,49.9 76.4,116.2 187.8,171.7 19.5,9.8 37.8,11.6 37.8,11.6 78.6,5.2 136.6,6.5 153.3,5.4 13,-0.9 24.8,-2.8 24.8,-2.8 4.5,-0.7 11.7,-2 20.9,-4.3 18.3,-4.6 31.8,-9.9 38,-12.3 5.5,-2.1 37.7,-14.1 70.7,-19.1 12.7,-1.9 31.6,-3.8 55.1,-2 96.7,27.1 193.4,54.1 290,81.2 -6.6,-83.6 -13.5,-167.5 -20.4,-251.3 z"
   id="path17" />
	<path
   class="st1"
   d="m 1605.5,1664.7 c 6.1,17.5 11.9,36.7 16.9,57.5 2.7,11.1 4.9,21.9 6.8,32.3 -8.8,10.8 -18.2,21.7 -28.3,32.7 -28.7,31.4 -57.5,58.1 -85.1,80.7 10,8.2 20.1,16.3 30.1,24.5 34.2,-13.5 77.3,-35.6 119.7,-72.2 14.9,-12.9 27.8,-25.9 38.9,-38.4 8.7,-1.9 25.1,-6.7 41.4,-19.8 16.2,-12.9 24.5,-27.7 28.3,-35.7 -5.4,4.8 -14.8,12 -28.3,16.3 -8.2,2.7 -15.6,3.5 -21.3,3.7 5.7,-14.8 11.3,-31.1 16.2,-49 7.1,-26 11.6,-50.1 14.3,-71.5 -49.8,13 -99.7,25.9 -149.6,38.9 z"
   id="path18" />
	<path
   class="st1"
   d="m 2139.2,1449.3 c 61.1,11.1 147.4,35.5 230.2,96.1 108.9,79.7 117.1,152.7 207.1,179.3 84.7,25 191.1,-7.1 252.3,-79.4 74.8,-88.4 79.5,-234.6 25.8,-271.1 -23.8,-16.2 -61,-12.1 -86.4,3 -31,18.4 -48.7,55.8 -46.7,97.3 -1.9,-5.9 -18.9,-62.5 16.9,-110.2 29.5,-39.4 81.5,-54.8 120.2,-43.7 75.4,21.6 93.6,142.3 93.4,201.6 -0.5,132.2 -93.5,220.1 -99.3,225.4 -116.4,106.8 -334.1,130.2 -448.9,44.7 -35,-26.1 -89.5,-84.7 -181.7,-97.3 -26.1,-3.6 -48.1,-2.5 -62.6,-1 -6.9,-81.7 -13.6,-163.2 -20.3,-244.7 z"
   id="path19" />
	<path
   class="st1"
   d="m 3228.3,222.2 c -7,-31 -34,-54.8 -68.2,-60.3 -9.9,-1.1 -24.7,-1.5 -42.1,2.9 -16.3,4.1 -28.9,11 -37.3,16.5 -191.7,21.2 -486.5,80.9 -805.2,263.6 -208,119.3 -366.5,256.7 -479.5,371.7 l -3.7,4.8 c -2.9,-4.3 -7.9,-10.4 -15.3,-15.7 -6.1,-4.3 -11.8,-6.7 -16.1,-8 -3.2,-0.9 -6.9,-1.5 -11.1,-1.6 -14.4,-0.3 -25.4,6.4 -30.7,10.3 6.3,0.2 28.3,1.9 44.3,20.7 5.2,6.2 8.5,12.6 10.6,17.9 -3.1,-0.9 -10.3,-2.4 -18.1,1.1 -10.3,4.7 -17.4,16.4 -18.4,30.1 7.4,-11.5 19.9,-16.9 31.2,-13.7 12.6,3.6 17.7,16.3 18.4,18.1 17.4,69.5 27.2,128.1 32.9,171.4 6.4,48.1 7.5,74.1 1.1,104.4 -9.9,46.5 -32.5,79.7 -48.1,98.7 70.3,52.8 140.7,105.5 211,158.3 0.9,-5.6 2.7,-9.9 4.9,-13.5 16.1,-25.1 66.8,-23.3 126.4,0.4 -16.7,-24.3 -17.1,-41.6 -15.5,-51.4 8.4,-53 102.3,-80.5 168.1,-82.5 29.5,-0.9 51.9,3.4 68.7,6.9 45.3,9.5 107.6,25.9 183.6,55.9 34.2,17.8 50.3,30.9 48.4,39.1 -1,4.2 -6.5,7.1 -16.6,8.8 12.1,5.6 24,5.4 29.2,-1 7.1,-8.7 -0.3,-25.6 -4.7,-35.5 -3.7,-8.5 -12.1,-24 -30.7,-37.4 0,0 0,0 0,0 -14.1,-34 -28.1,-77.1 -36.2,-128.2 -4.6,-29.4 -21.9,-139.1 9.8,-222.4 46.4,-121.9 201.3,-197.3 382,-189.6 5.7,1.1 12.4,3.9 17.4,10.6 4.5,6 5.6,12.7 5.9,16.2 6,-6.9 7.9,-13 8.2,-17.7 1.6,-24.3 -34.8,-51.6 -90.8,-67.8 0,0 0,0 0,0 -26.9,-30.9 -52.3,-72.6 -58.7,-124.4 -16.8,-136.1 102.4,-302.2 302.7,-345.2 24.3,-25.7 59,-34.5 88.9,-22.4 35.5,14.3 47.7,51.5 49.3,56.8 3.4,-8.9 8.6,-26.7 4,-46.9 z"
   id="path20" />
	<path
   class="st1"
   d="m 1571.8,1182.1 c 6.8,-0.9 14.2,-1.5 22.2,-1.3 31.7,0.7 56.7,12 72,20.9 -20.2,-6.8 -36.7,-2.2 -40.3,6.5 -0.5,1.2 -2.3,6.2 2.6,14.8 7.2,-3.6 19.8,-8.7 36.2,-9.3 23.5,-0.8 40.9,8 48.3,12.3 -12.8,2.4 -27.6,7.3 -31.4,18.1 -5.3,15.4 15.4,31.5 11.6,37.9 -3.7,6.1 -29.2,1.4 -112.3,-36.4 -3,-21.1 -5.9,-42.3 -8.9,-63.5 z"
   id="path21" />
	<path
   class="st1"
   d="m 2084.9,1431.5 c 18.8,-1.2 39.5,-1.4 61.8,0.2 8.1,0.6 16,1.4 23.5,2.3 -3.7,1.7 -9,4.8 -13.9,10.3 -2.3,2.6 -4,5.1 -5.3,7.3 20.3,-4.7 51,-9 87.4,-3.3 18.6,2.9 34.6,7.8 47.5,12.8 -27.2,2 -41.1,5.8 -41.8,11.3 -0.6,4.3 6.7,9.6 21.8,15.9 9.8,-3.2 23.8,-6.7 40.9,-7 21.7,-0.4 39,4.5 49.9,8.4 -25.4,2.3 -38.3,5.9 -38.7,10.7 -0.2,1.9 1.6,3.9 5.2,6.2 5.3,-1 10.9,-1.7 16.9,-2 37.4,-1.9 67.6,13.4 85.1,24.7 -32.2,-0.3 -48.9,2.5 -50,8.3 -0.7,3.6 4.7,8.5 16.2,14.5 6,-0.5 12.6,-0.6 19.9,0.1 22.9,2 40.7,10.3 52,17 -34.2,7.9 -41.8,13.9 -41.7,18.1 0,2.8 3.6,7.6 8.4,9.9 2.4,1.1 4.7,1.4 6.1,1.5 3.5,-1.1 7.8,-2 12.9,-2 16.2,0.1 27.5,9.9 31.1,13.2 -10.9,-4.2 -20.9,-0.6 -23.5,5.5 -1.9,4.5 0.6,9.5 1.5,11.1 7.7,0.7 18.8,2.7 31,8.4 7.9,3.8 14.2,8.1 18.9,11.9 -10.9,-4.2 -20.8,-1.4 -23.5,4.3 -0.4,0.8 -1.8,4 0.4,9.4 8.2,1.5 18.4,4.1 29.6,9 7.8,3.4 14.3,7.2 19.7,10.8 -15.1,-0.5 -23.1,0.9 -24,4.1 -0.5,1.9 1.4,4.4 5.6,7.5 5.8,-0.6 13.2,-0.8 21.6,0.3 11.7,1.5 21.1,4.9 27.6,7.9 -16.8,0.1 -25.6,1.9 -26.3,5.5 -0.2,1.1 0.3,2.3 1.5,3.6 5.6,-0.5 11.4,-0.9 17.4,-1.1 15.4,-0.6 29.6,-0.1 42.5,1.1 -15.7,6.7 -23.2,11.6 -22.5,14.6 0.4,1.6 3,2.7 7.9,3.2 3.1,-2.4 7,-4.9 11.6,-7 13.8,-6.4 26.9,-6.1 34.1,-5.3 -7.9,5.3 -15.5,11.5 -14.2,15.1 0.4,1.2 2,2.4 6.3,2.9 4.1,-2.9 8.8,-6 14.2,-8.8 11.7,-6.1 22.7,-9.3 31.4,-11.1 -10.2,8.2 -14.6,13.5 -13.4,15.9 0.7,1.4 3.3,1.8 7.8,1.3 4.4,-4.5 10.8,-10.1 19.4,-15.1 6.5,-3.8 12.7,-6.2 17.7,-7.8 -7.2,5.4 -9.2,12.5 -7,15.4 2.2,2.9 8.5,1.7 9.1,1.5 2.2,-3.7 5.1,-7.8 8.6,-11.9 5.8,-6.8 11.7,-11.9 16.7,-15.6 -5.5,8.3 -7,15.6 -4.2,18.1 0.6,0.5 1.8,1.3 4.5,1 1,-2.9 2.4,-6.1 4.3,-9.4 5.4,-9.6 12.5,-15.9 17.6,-19.6 -2.7,9.2 -2.5,16.2 0.4,17.7 0.7,0.3 2.3,0.8 5.6,-1.3 1.4,-4.4 3.7,-9.9 7.2,-15.7 4.5,-7.5 9.6,-12.9 13.6,-16.6 -3.4,8.9 -3.4,15.9 -0.5,17.5 0.5,0.3 2.5,1.2 7,-1.8 0.5,-3 1.2,-6.3 2.4,-9.8 3.9,-11.5 10.6,-19.4 15.4,-24.1 -4.2,7.7 -3.8,14.8 -0.5,16.9 0.5,0.3 2.3,1.3 5.8,0.3 0.2,-4.5 0.8,-10.3 2.7,-16.8 2.1,-7.6 5.2,-13.5 7.7,-17.8 -1.8,8.9 0,15.4 3.2,16.5 0.5,0.2 2.4,0.6 5.8,-2 -0.6,-4.1 -0.9,-9.7 0.2,-16.3 1.7,-10.3 6.1,-17.8 9,-22 -0.8,4.4 -3,17 0.8,18.7 1,0.4 3.1,0.4 7.6,-4.1 -0.5,-4.2 -0.8,-8.8 -0.8,-13.8 0,-9.9 1.4,-18.6 3,-25.7 0.4,10.7 3.7,17.8 7.2,18.1 3.4,0.3 6.6,-5.6 7.4,-7.3 -1.4,-3.4 -2.8,-7.6 -3.6,-12.5 -2.1,-12.4 0.2,-22.7 2.1,-28.8 1.4,14 3.7,21.2 6.8,21.6 1.7,0.2 3.5,-1.5 5.7,-5.2 -0.9,-2.9 -1.8,-6.1 -2.4,-9.6 -2.1,-10.9 -1.5,-20.4 -0.4,-27.7 0.4,5 3.8,8.8 7.6,9.2 3.1,0.3 5.4,-1.6 6.1,-2.1 -1.6,-2.5 -3.3,-5.5 -4.6,-9.1 -4.5,-12.3 -2.1,-23.5 -0.6,-28.8 0.2,4 2.9,7.1 6,7.4 2.6,0.3 4.7,-1.5 5.1,-1.9 -1.8,-1.8 -3.6,-4 -5.3,-6.7 -5.7,-8.9 -6.6,-17.9 -6.7,-23 1.6,4.9 5.7,8 9.6,7.8 2.4,-0.1 4.2,-1.6 5.1,-2.4 -2.3,-2.6 -4.9,-6 -7.2,-10.3 -4.1,-7.5 -5.7,-14.6 -6.5,-19.5 2.7,4.9 7.1,7.5 10.7,6.7 0.8,-0.2 2,-0.6 3.2,-1.9 -2.3,-1.7 -5.9,-4.8 -8.8,-9.8 -3.3,-5.6 -4.3,-10.9 -4.6,-13.9 1.8,2.7 4.8,4.1 7.3,3.5 1.7,-0.4 2.7,-1.6 3.2,-2.2 -1.8,-0.6 -4.6,-1.8 -7.4,-4.4 -3.8,-3.5 -5.3,-7.4 -5.8,-9.3 0.6,0.3 4.1,2 7.6,0.4 1.1,-0.5 1.9,-1.3 2.5,-1.9 -2.1,-0.8 -5.5,-2.3 -8.8,-5.4 -4.4,-4.2 -6.1,-8.9 -6.7,-11.2 2.4,3 6.1,3.2 7.7,1.6 1.1,-1 1.3,-2.9 0.8,-4.7 -1.9,-0.1 -4.7,-0.5 -7.9,-1.8 -4,-1.7 -6.7,-4.2 -8.1,-5.8 3.5,1.4 7,1 8.7,-1.1 0.4,-0.4 0.9,-1.3 1.1,-2.6 -1.9,0.4 -5.5,0.7 -9.6,-0.5 -5.6,-1.7 -8.9,-5.3 -10.1,-6.8 5.2,0.3 8.9,-1.4 9.3,-3.5 0.1,-0.4 0.1,-1.3 -0.9,-2.7 -2.1,0.8 -5.7,1.8 -10.3,1.5 -5.1,-0.3 -9,-2 -11.1,-3.1 0.8,0 5.3,-0.2 7.9,-3.7 0.8,-1.1 1.3,-2.2 1.5,-3.1 -2.9,1.2 -6.4,2.4 -10.4,3.2 -5.5,1.2 -10.3,1.4 -14.1,1.2 3.6,-2 4.8,-5.9 3.4,-8.4 -1.4,-2.5 -4.8,-2.6 -5,-2.6 -0.6,1.9 -1.6,4.4 -3.6,7 -4.6,6 -11.1,7.8 -13.4,8.4 0.7,-0.6 2.9,-2.7 2.9,-5.5 0,-3.8 -3.9,-7.7 -9.7,-8.3 -2.4,3.3 -5.9,7.5 -11,11.5 -5.5,4.3 -10.8,6.9 -14.7,8.4 4.4,-4.1 5.8,-8.5 4.4,-10.2 -1.3,-1.6 -4.9,-0.8 -5.6,-0.6 -0.8,2.8 -2.1,6.4 -4.4,10.2 -3.4,5.6 -7.5,9.1 -10.2,11.2 2.4,-5.2 2.9,-9.4 1.4,-10.3 -1.7,-1.1 -5.7,2.4 -6.3,2.9 -0.2,3 -0.7,7.1 -2.4,11.7 -1.5,4.2 -3.4,7.6 -5,9.9 -0.2,-6.6 -0.7,-10 -1.6,-10.1 -0.4,-0.1 -1,0.7 -1.6,2.2 0.7,2 1.7,5.7 1.1,10.2 -0.9,7.1 -5,11.5 -6.5,13 0.8,-3.7 -0.9,-6.8 -3.2,-7.4 -1.6,-0.4 -3.1,0.5 -3.7,0.9 5.3,-16.7 10.6,-33.4 16,-50.1 l 55.2,-29.6 54.3,5.3 41.7,26.2 20.9,63.2 4,128.1 -41.7,123.1 -153.9,77.5 -229.4,-4 c 0,0 -149,-122.2 -151,-128.1 -2,-6 -163.9,-127.1 -163.9,-127.1 l -84.4,-32.8 z"
   id="path22" />
	<path
   class="st1"
   d="m 1479.6,1834.7 c -8.7,-0.8 -21.6,-2.7 -36.3,-7.8 -17.2,-6 -24.8,-12.3 -38,-18.4 -12.2,-5.6 -30.3,-11.8 -55.7,-12.8 -3.2,-0.1 -12,0.2 -20.7,6.2 -6.6,4.6 -9.9,10.3 -11.3,13.2 -3.4,0.3 -6.8,0.6 -10.2,0.9 -9.8,6 -22.5,15.1 -35.2,28.4 -12.4,13.1 -20.8,26.1 -26.2,36.1 11.9,-7.1 25.6,-14.4 41,-21.3 12.6,-5.6 24.6,-10.2 35.8,-13.9 -3.7,1.8 -7.7,4.1 -11.8,7.1 -15.3,11.4 -22.2,26.7 -25.3,35.2 7.8,-4 18.7,-8.9 32.4,-12.3 1.4,-0.3 10.6,-2.6 20.9,-3.6 20.3,-1.9 33,2.1 57.4,6.1 31.4,5.2 54.4,8.9 81.4,2.4 8.8,-2.1 15.9,-4.8 20.6,-6.8 -6.2,-12.8 -12.5,-25.8 -18.8,-38.7 z"
   id="path23" />
	<path
   class="st1"
   d="m 1550.2,1645.4 c 6.1,17.5 11.9,36.7 16.9,57.5 1.1,4.7 2.2,9.3 3.2,13.9 2.5,11.6 -0.6,23.7 -8.3,32.7 -5.2,6.1 -10.7,12.3 -16.3,18.4 -28.7,31.4 -57.5,58.1 -85.1,80.7 10,8.2 20.1,16.3 30.1,24.5 34.2,-13.5 77.3,-35.6 119.7,-72.2 14.9,-12.9 27.8,-25.9 38.9,-38.4 8.7,-1.9 25.1,-6.7 41.4,-19.8 16.2,-12.9 24.5,-27.7 28.3,-35.7 -5.4,4.8 -14.8,12 -28.3,16.3 -8.2,2.7 -15.6,3.5 -21.3,3.7 5.7,-14.8 11.3,-31.1 16.2,-49 7.1,-26 11.6,-50.1 14.3,-71.5 -49.9,13 -99.8,26 -149.7,38.9 z"
   id="path24" />
	<path
   class="st1"
   d="m 1527.2,1853.5 c -8.7,-0.8 -21.6,-2.7 -36.3,-7.8 -17.2,-6 -24.8,-12.3 -38,-18.4 -12.2,-5.6 -30.3,-11.8 -55.7,-12.8 -3.2,-0.1 -12,0.2 -20.7,6.2 -6.6,4.6 -9.9,10.3 -11.3,13.2 -3.4,0.3 -6.8,0.6 -10.2,0.9 -9.8,6 -22.5,15.1 -35.2,28.4 -12.4,13.1 -20.8,26.1 -26.2,36.1 11.9,-7.1 25.6,-14.4 41,-21.3 12.6,-5.6 24.6,-10.2 35.8,-13.9 -3.7,1.8 -7.7,4.1 -11.8,7.1 -15.3,11.4 -22.2,26.7 -25.3,35.2 7.8,-4 18.7,-8.9 32.4,-12.3 1.4,-0.3 10.6,-2.6 20.9,-3.6 20.3,-1.9 33,2.1 57.4,6.1 31.4,5.2 54.4,8.9 81.4,2.4 8.8,-2.1 15.9,-4.8 20.6,-6.8 -6.2,-12.7 -12.5,-25.7 -18.8,-38.7 z"
   id="path25" />
	<linearGradient
   id="SVGID_8_"
   gradientUnits="userSpaceOnUse"
   x1="1293.6166"
   y1="1861.9517"
   x2="1396.1698"
   y2="1861.9517">
		<stop
   offset="0"
   style="stop-color:#DAA96F"
   id="stop25" />
		<stop
   offset="1"
   style="stop-color:#F1DDBA"
   id="stop26" />
	</linearGradient>
	<path
   class="st8"
   d="m 1293.6,1899.4 c 7,-15.8 20.3,-39.3 45,-58.6 6.8,-5.3 13.5,-9.5 19.8,-12.9 3,-1.5 8.7,-3.6 16,-3.4 11.5,0.3 19.3,6.3 21.8,8.4 -11.5,1 -28.8,3.9 -47.4,13.3 -32.2,16.2 -48.8,41.8 -55.2,53.2 z"
   id="path26"
   style="fill:url(#SVGID_8_)" />
	<linearGradient
   id="SVGID_9_"
   gradientUnits="userSpaceOnUse"
   x1="1333.3748"
   y1="1878.2689"
   x2="1417.8718"
   y2="1878.2689">
		<stop
   offset="0"
   style="stop-color:#DAA96F"
   id="stop27" />
		<stop
   offset="1"
   style="stop-color:#F1DDBA"
   id="stop28" />
	</linearGradient>
	<path
   class="st9"
   d="m 1333.4,1906.6 c 2,-6 5.8,-14.9 13.2,-23.7 3.3,-3.9 6.2,-6.4 12,-11.5 8.4,-7.3 15.1,-13 25.1,-17.3 5.1,-2.2 9.5,-3.3 12.4,-3.9 2.2,-0.2 7,-0.5 12.3,1.9 5,2.2 8,5.5 9.4,7.2 -8.2,-0.9 -20.3,-1.1 -33.8,3.2 -31.9,10 -47,37.1 -50.6,44.1 z"
   id="path28"
   style="fill:url(#SVGID_9_)" />
	<linearGradient
   id="SVGID_10_"
   gradientUnits="userSpaceOnUse"
   x1="1335.0576"
   y1="1792.1738"
   x2="1260.5045"
   y2="1867.2377">
		<stop
   offset="0"
   style="stop-color:#DAA96F"
   id="stop29" />
		<stop
   offset="1"
   style="stop-color:#F1DDBA"
   id="stop30" />
	</linearGradient>
	<path
   class="st10"
   d="m 1246,1880.5 c 7.6,-13.8 19.8,-31.7 39,-48.3 7.7,-6.6 15.3,-11.9 22.3,-16.2 5.5,-0.5 11,-1.1 16.5,-1.6 -10.3,4.8 -22.4,11.5 -35,20.9 -20.4,15.5 -34.1,32.4 -42.8,45.2 z"
   id="path30"
   style="fill:url(#SVGID_10_)" />
	<linearGradient
   id="SVGID_11_"
   gradientUnits="userSpaceOnUse"
   x1="1341.5074"
   y1="1798.5798"
   x2="1266.9542"
   y2="1873.6436">
		<stop
   offset="0"
   style="stop-color:#DAA96F"
   id="stop31" />
		<stop
   offset="1"
   style="stop-color:#F1DDBA"
   id="stop32" />
	</linearGradient>
	<path
   class="st11"
   d="m 1309.2,1815.8 c 2.6,-3.6 11.1,-14.6 26.8,-19 10.4,-2.9 19.3,-1.5 23.8,-0.5 -3.8,-0.6 -14.3,-1.7 -25.7,4 -9.2,4.6 -14.4,11.5 -16.5,14.8 -1.7,0.4 -3.4,0.8 -5.1,1.2 z"
   id="path32"
   style="fill:url(#SVGID_11_)" />
	<linearGradient
   id="SVGID_12_"
   gradientUnits="userSpaceOnUse"
   x1="1927.7455"
   y1="1680.4718"
   x2="2053.6167"
   y2="1680.4718">
		<stop
   offset="0"
   style="stop-color:#DAA96F"
   id="stop33" />
		<stop
   offset="1"
   style="stop-color:#F1DDBA"
   id="stop34" />
	</linearGradient>
	<path
   class="st12"
   d="m 2039.1,1810.2 c 0.7,-1.1 -45.4,-19.4 -74.8,-66.2 -9.2,-14.6 -42.4,-67.5 -19.2,-122.1 17.3,-40.6 59.8,-67.7 108.5,-71.3 -3.9,0.1 -80.5,3.5 -113.4,65 -0.4,0.7 -0.8,1.5 -1.2,2.2 -15.8,31.2 -14.9,68.2 1.4,99.1 6.2,11.7 14.4,24.6 25.3,37.5 33.2,39.4 72.7,56.8 73.4,55.8 z"
   id="path34"
   style="fill:url(#SVGID_12_)" />
	<linearGradient
   id="SVGID_13_"
   gradientUnits="userSpaceOnUse"
   x1="1812.9816"
   y1="1646.2094"
   x2="1893.322"
   y2="1765.0178">
		<stop
   offset="0"
   style="stop-color:#DAA96F"
   id="stop35" />
		<stop
   offset="1"
   style="stop-color:#F1DDBA"
   id="stop36" />
	</linearGradient>
	<path
   class="st13"
   d="m 1811.5,1661 10.4,-4.5 c 6.7,17.9 19.2,44.9 42.9,71.7 18.9,21.4 38.4,35.5 53.1,44.4 -14.8,-5.8 -39.2,-17.5 -62.6,-40.9 -26.6,-26.6 -38.5,-55.1 -43.8,-70.7 z"
   id="path36"
   style="fill:url(#SVGID_13_)" />
	<linearGradient
   id="SVGID_14_"
   gradientUnits="userSpaceOnUse"
   x1="1675.9727"
   y1="1891.7153"
   x2="1929.5371"
   y2="1777.0498">
		<stop
   offset="0"
   style="stop-color:#DAA96F"
   id="stop37" />
		<stop
   offset="1"
   style="stop-color:#F1DDBA"
   id="stop38" />
	</linearGradient>
	<path
   class="st14"
   d="m 1667.6,1900.1 c 11.7,-13.1 36.8,-37.5 76.9,-52.4 35.7,-13.3 67,-12.9 84.1,-11.4 -6.3,-0.8 -18.5,-1.5 -32.1,4.1 -7.6,3.1 -13.2,7.1 -17.1,10.4 -14.4,1.2 -35.8,4.6 -59.8,15.1 -24.2,10.6 -41.4,24.3 -52,34.2 z"
   id="path38"
   style="fill:url(#SVGID_14_)" />
	<linearGradient
   id="SVGID_15_"
   gradientUnits="userSpaceOnUse"
   x1="1704.1776"
   y1="1957.7521"
   x2="1923.2415"
   y2="1858.6882">
		<stop
   offset="0"
   style="stop-color:#DAA96F"
   id="stop39" />
		<stop
   offset="1"
   style="stop-color:#F1DDBA"
   id="stop40" />
	</linearGradient>
	<path
   class="st15"
   d="m 1796,1930 c 4.4,-8 15,-24.6 35.5,-35.8 11.1,-6.1 21.5,-8.6 29,-9.8 -3.7,-1.6 -7.4,-3.1 -11.1,-4.7 -6.1,1.6 -13.9,4.3 -21.9,9.4 -20.5,13.1 -28.7,32.9 -31.5,40.9 z"
   id="path40"
   style="fill:url(#SVGID_15_)" />
	<linearGradient
   id="SVGID_16_"
   gradientUnits="userSpaceOnUse"
   x1="1762.042"
   y1="1893.1604"
   x2="1826.6378"
   y2="1893.1604">
		<stop
   offset="0"
   style="stop-color:#DAA96F"
   id="stop41" />
		<stop
   offset="1"
   style="stop-color:#F1DDBA"
   id="stop42" />
	</linearGradient>
	<path
   class="st16"
   d="m 1762,1917.2 c 3.4,-8.7 9.4,-20.2 20.2,-30.8 2.9,-2.9 5.8,-5.3 8.7,-7.4 3.4,-2.4 8.6,-5.4 15.3,-7.5 8.5,-2.6 15.8,-2.6 20.4,-2.2 -8.2,2.3 -19,6.4 -30.4,13.7 -17.7,11.4 -28.4,25.3 -34.2,34.2 z"
   id="path42"
   style="fill:url(#SVGID_16_)" />
	<linearGradient
   id="SVGID_17_"
   gradientUnits="userSpaceOnUse"
   x1="1285.7952"
   y1="1866.4496"
   x2="1322.8539"
   y2="1866.4496">
		<stop
   offset="0"
   style="stop-color:#DAA96F"
   id="stop43" />
		<stop
   offset="1"
   style="stop-color:#F1DDBA"
   id="stop44" />
	</linearGradient>
	<path
   class="st17"
   d="m 1299.8,1853.1 c -2.5,3.3 -5.3,7.5 -7.8,12.7 -4,8.5 -5.6,16.3 -6.2,21.9 2.7,-6.3 7.4,-15.3 15.5,-24.4 7.8,-8.8 15.8,-14.4 21.6,-17.9 -2.2,-0.2 -4.9,-0.2 -7.9,0.4 -7.5,1.2 -12.6,5.1 -15.2,7.3 z"
   id="path44"
   style="fill:url(#SVGID_17_)" />
	<linearGradient
   id="SVGID_18_"
   gradientUnits="userSpaceOnUse"
   x1="1956.8506"
   y1="1819.7522"
   x2="2039.0634"
   y2="1819.7522">
		<stop
   offset="0"
   style="stop-color:#DAA96F"
   id="stop45" />
		<stop
   offset="1"
   style="stop-color:#F1DDBA"
   id="stop46" />
	</linearGradient>
	<path
   class="st18"
   d="m 2039.1,1810.2 c -7.2,3.2 -15.1,6.2 -23.8,8.9 -22,6.8 -42.1,9.2 -58.4,9.7 15,1 34.4,0.6 55.9,-4.7 7.6,-1.9 14.6,-4.1 20.9,-6.5 1.8,-2.4 3.6,-4.9 5.4,-7.4 z"
   id="path46"
   style="fill:url(#SVGID_18_)" />
	<g
   id="g48">
		<linearGradient
   id="SVGID_19_"
   gradientUnits="userSpaceOnUse"
   x1="2255.8293"
   y1="1550.8546"
   x2="2919.8335"
   y2="1550.8546">
			<stop
   offset="0"
   style="stop-color:#DAA96F"
   id="stop47" />
			<stop
   offset="1"
   style="stop-color:#F1DDBA"
   id="stop48" />
		</linearGradient>
		<path
   class="st19"
   d="m 2255.8,1515.3 c 11.8,3.9 23.5,8.4 34.8,13.5 11.4,5.1 22.4,11 33,17.5 21.3,12.9 41,28.7 57.9,47.1 8.4,9.2 15.9,19.3 23.4,29.2 3.7,5 7.6,9.8 11.5,14.6 4,4.8 8,9.5 12.2,14 2.1,2.2 4.2,4.6 6.4,6.8 2.2,2.2 4.3,4.4 6.6,6.6 l 6.7,6.4 c 2.2,2.1 4.5,4.3 6.8,6.4 9.1,8.5 18.3,16.8 28,24.6 9.7,7.7 19.7,15 30.4,21.2 10.6,6.3 21.7,11.9 33.2,16.4 l 2.1,0.9 1.1,0.4 1.1,0.4 4.4,1.5 4.4,1.5 2.2,0.8 c 0.7,0.3 1.5,0.4 2.2,0.7 l 8.9,2.6 c 1.5,0.5 3,0.8 4.5,1.2 l 4.5,1.1 c 12,2.8 24.2,4.8 36.6,5.9 12.3,1.1 24.7,1.3 37,0.7 12.4,-0.5 24.6,-2 36.9,-4.1 24.4,-4 48.3,-11.1 70.8,-21.3 11.3,-5 22.2,-10.9 32.7,-17.4 10.4,-6.6 20.4,-14 29.8,-22 9.4,-8.1 18.1,-16.9 26,-26.3 8,-9.4 15.3,-19.4 21.8,-29.9 6.5,-10.5 12.2,-21.5 17.1,-32.9 4.9,-11.4 8.9,-23 12.4,-35 1.8,-6 3.5,-11.9 5,-17.9 0.8,-3 1.4,-6 2.1,-9 l 0.9,-4.5 c 0.3,-1.5 0.6,-3 0.9,-4.6 2.2,-12.2 3.5,-24.5 3.7,-36.8 0.2,-12.4 -0.8,-24.7 -2.8,-36.9 l -1.8,-9.1 c -0.6,-3 -1.3,-6.1 -2,-9.1 -1.4,-6.1 -2.9,-12.1 -4.6,-18 -3.4,-11.9 -7.5,-23.6 -13,-34.7 -5.5,-11 -12.5,-21.4 -21.7,-29.6 -4.6,-4.1 -9.7,-7.6 -15.2,-10.2 l -2.1,-1 -2.1,-0.8 c -0.7,-0.3 -1.4,-0.6 -2.1,-0.8 l -2.2,-0.7 c -2.9,-1 -5.9,-1.5 -9,-2 -12.2,-1.9 -24.8,0 -36.4,4 -11.7,4.1 -22.6,10.3 -32.5,17.8 -9.9,7.5 -18.8,16.4 -26.6,26.1 7.6,-9.8 16.4,-18.8 26.2,-26.5 9.8,-7.7 20.7,-14.1 32.5,-18.3 11.7,-4.2 24.5,-6.2 37,-4.5 3.1,0.5 6.2,1 9.2,2 l 2.3,0.7 c 0.7,0.3 1.5,0.5 2.2,0.8 l 2.2,0.8 2.2,1 c 5.7,2.6 11,6.2 15.8,10.3 4.8,4.1 8.9,8.9 12.6,14 3.7,5.1 6.9,10.5 9.8,16.1 5.7,11.2 10,23 13.5,35 1.7,6 3.3,12.1 4.7,18.1 0.7,3 1.4,6.1 2.1,9.1 l 1.9,9.2 c 2.2,12.3 3.2,24.9 3.1,37.4 -0.1,12.5 -1.3,25.1 -3.5,37.4 -0.2,1.5 -0.5,3.1 -0.9,4.6 l -0.9,4.6 c -0.7,3 -1.3,6.1 -2.1,9.1 -1.5,6.1 -3.2,12.1 -5,18.1 -3.5,12 -7.5,23.9 -12.5,35.4 -4.9,11.5 -10.7,22.7 -17.3,33.4 -6.6,10.7 -13.9,20.9 -22,30.4 -8.1,9.6 -16.9,18.5 -26.4,26.8 -9.5,8.2 -19.6,15.7 -30.2,22.4 -10.6,6.7 -21.7,12.7 -33.1,17.8 -22.9,10.2 -47.1,17.4 -71.8,21.4 -12.3,2 -24.8,3.5 -37.3,4 -12.5,0.5 -25.1,0.3 -37.5,-0.8 -12.5,-1.1 -24.9,-3.2 -37.1,-6 l -4.6,-1.1 c -1.5,-0.4 -3.1,-0.7 -4.5,-1.2 l -9,-2.7 c -0.7,-0.2 -1.5,-0.4 -2.2,-0.7 l -2.2,-0.8 -4.4,-1.6 -4.4,-1.6 -1.1,-0.4 -1.1,-0.5 -2.2,-0.9 c -23.3,-9.2 -44.9,-22.6 -64.2,-38.4 -9.7,-7.9 -18.9,-16.4 -27.9,-24.9 -2.3,-2.1 -4.5,-4.3 -6.8,-6.4 l -6.7,-6.5 c -2.2,-2.2 -4.4,-4.5 -6.5,-6.7 -2.2,-2.2 -4.3,-4.6 -6.4,-6.9 -4.2,-4.6 -8.2,-9.4 -12.2,-14.2 -3.9,-4.9 -7.7,-9.8 -11.4,-14.8 -3.7,-5 -7.4,-10 -11.2,-14.9 -3.8,-4.9 -7.8,-9.7 -11.8,-14.3 -16.6,-18.4 -36,-34.3 -57,-47.5 -10.5,-6.6 -21.5,-12.5 -32.7,-17.8 -11.8,-5.5 -23.3,-10.2 -35.1,-14.3 z"
   id="path48"
   style="fill:url(#SVGID_19_)" />
	</g>
	<linearGradient
   id="SVGID_20_"
   gradientUnits="userSpaceOnUse"
   x1="1675.3002"
   y1="1813.7504"
   x2="1756.9357"
   y2="1813.7504">
		<stop
   offset="0"
   style="stop-color:#DAA96F"
   id="stop49" />
		<stop
   offset="1"
   style="stop-color:#F1DDBA"
   id="stop50" />
	</linearGradient>
	<path
   class="st20"
   d="m 1743.8,1803.4 c -5.7,0.9 -11.9,2.3 -18.5,4.4 -23.8,7.8 -40.2,21.7 -50,31.8 10,-11.1 25.5,-25.7 47.7,-37.7 12.4,-6.7 24,-11.1 34,-14 -3.2,2.3 -7.2,5.8 -10.6,11 -1.1,1.5 -1.9,3.1 -2.6,4.5 z"
   id="path50"
   style="fill:url(#SVGID_20_)" />
	<path
   class="st1"
   d="m 1755.9,1822.7 c -4.2,4.8 -8.4,9.5 -12.6,14.3 8.9,-3.1 21,-6.3 35.5,-7.4 11.4,-0.9 21.4,-0.2 29.4,0.9 8.2,-7.2 16.3,-14.4 24.5,-21.6 h -58.5 c -6,4.6 -12.2,9.2 -18.3,13.8 z"
   id="path51" />
	<linearGradient
   id="SVGID_21_"
   gradientUnits="userSpaceOnUse"
   x1="1751.9995"
   y1="1820.1277"
   x2="1773.2761"
   y2="1820.1277">
		<stop
   offset="0"
   style="stop-color:#DAA96F"
   id="stop51" />
		<stop
   offset="1"
   style="stop-color:#F1DDBA"
   id="stop52" />
	</linearGradient>
	<path
   class="st21"
   d="m 1773.3,1808.4 c -3.5,2.7 -7.5,6.2 -11.5,10.6 -4.1,4.5 -7.3,8.9 -9.8,12.8 6.1,-2.8 12.2,-5.6 18.3,-8.5 -0.4,-1.4 -0.7,-3.2 -0.6,-5.5 0.3,-4.6 2.5,-8 3.6,-9.4 z"
   id="path52"
   style="fill:url(#SVGID_21_)" />
	<linearGradient
   id="SVGID_22_"
   gradientUnits="userSpaceOnUse"
   x1="1313.2266"
   y1="1150.9788"
   x2="1526.5363"
   y2="1150.9788">
		<stop
   offset="0"
   style="stop-color:#98764D"
   id="stop53" />
		<stop
   offset="1"
   style="stop-color:#B29762"
   id="stop54" />
	</linearGradient>
	<path
   class="st22"
   d="m 1314.2,1015.1 c 3.2,1.8 6.5,3.5 9.7,5.3 3.2,1.9 6.4,3.7 9.5,5.6 3.1,1.9 6.3,3.8 9.4,5.8 l 9.3,6 c 12.2,8.3 24,17.2 35.4,26.6 l 8.4,7.2 c 1.4,1.2 2.8,2.4 4.1,3.7 l 4.1,3.8 c 5.5,4.9 10.7,10.2 15.9,15.4 1.3,1.3 2.6,2.7 3.8,4 l 3.8,4.1 3.8,4.1 1.9,2 1.8,2.1 c 4.8,5.7 9.7,11.2 14.1,17.1 l 6.8,8.8 6.4,9.1 3.2,4.5 1.6,2.3 1.5,2.3 5.9,9.4 3,4.7 c 0.9,1.6 1.8,3.2 2.7,4.8 l 5.5,9.7 c 3.7,6.4 6.9,13.1 10.1,19.7 6.4,13.3 11.9,27.1 16.7,41 2.4,7 4.5,14 6.6,21.1 1,3.5 1.9,7.1 2.9,10.7 l 1.3,5.4 1.2,5.4 c -7.9,-28.4 -18.4,-56 -31.4,-82.2 -13.2,-26.2 -28.9,-51.1 -47,-74.2 -4.4,-5.9 -9.2,-11.4 -13.9,-17 l -1.8,-2.1 -1.9,-2 -3.7,-4.1 -3.7,-4.1 c -1.2,-1.3 -2.4,-2.7 -3.8,-4 -5.2,-5.2 -10.2,-10.6 -15.6,-15.5 l -4,-3.8 c -1.3,-1.3 -2.7,-2.5 -4,-3.7 l -8.2,-7.3 c -11.1,-9.6 -22.6,-18.7 -34.5,-27.3 l -9,-6.4 c -3,-2.1 -6.1,-4.1 -9.1,-6.2 -6.3,-4 -12.5,-7.9 -18.8,-11.8 z"
   id="path54"
   style="fill:url(#SVGID_22_)" />
	<linearGradient
   id="SVGID_23_"
   gradientUnits="userSpaceOnUse"
   x1="2162.8931"
   y1="1452.9071"
   x2="2267.3188"
   y2="1452.9071">
		<stop
   offset="0"
   style="stop-color:#98764D"
   id="stop55" />
		<stop
   offset="1"
   style="stop-color:#B29762"
   id="stop56" />
	</linearGradient>
	<path
   class="st23"
   d="m 2162.9,1451.5 c 13.8,-2.3 31.6,-4 52.2,-2.8 30,1.7 52.3,8.4 52.2,8.8 -0.1,0.5 -28.4,-7.8 -66.8,-6.1 -12.7,0.5 -23.3,2 -30.6,3.3 -2.3,-1.1 -4.7,-2.1 -7,-3.2 z"
   id="path56"
   style="fill:url(#SVGID_23_)" />
	<linearGradient
   id="SVGID_24_"
   gradientUnits="userSpaceOnUse"
   x1="2268.2124"
   y1="1489.6592"
   x2="2341.489"
   y2="1489.6592">
		<stop
   offset="0"
   style="stop-color:#98764D"
   id="stop57" />
		<stop
   offset="1"
   style="stop-color:#B29762"
   id="stop58" />
	</linearGradient>
	<path
   class="st24"
   d="m 2268.2,1489.8 c 10.2,-3.2 24.7,-6.5 42.1,-6.5 12.2,0 22.8,1.6 31.1,3.4 -8,-1 -19.6,-1.5 -33.1,1.3 -9.8,2 -17.9,5.1 -24,8 -5.3,-2 -10.7,-4.1 -16.1,-6.2 z"
   id="path58"
   style="fill:url(#SVGID_24_)" />
	<linearGradient
   id="SVGID_25_"
   gradientUnits="userSpaceOnUse"
   x1="1467.6591"
   y1="1097.5393"
   x2="1564.6804"
   y2="1097.5393">
		<stop
   offset="0"
   style="stop-color:#98764D"
   id="stop59" />
		<stop
   offset="1"
   style="stop-color:#B29762"
   id="stop60" />
	</linearGradient>
	<path
   class="st25"
   d="m 1467.7,1096.6 c 2.7,4.1 5.3,8.1 8,12.2 7.8,-5.3 20.9,-12.9 38.7,-16.8 22.1,-4.9 40.5,-1.7 50.3,0.8 -8.3,-2.6 -18.3,-4.8 -29.6,-5.9 -29.2,-2.7 -53,4.1 -67.4,9.7 z"
   id="path60"
   style="fill:url(#SVGID_25_)" />
	<linearGradient
   id="SVGID_26_"
   gradientUnits="userSpaceOnUse"
   x1="1429.6166"
   y1="1039.4534"
   x2="1531.2335"
   y2="1039.4534">
		<stop
   offset="0"
   style="stop-color:#98764D"
   id="stop61" />
		<stop
   offset="1"
   style="stop-color:#B29762"
   id="stop62" />
	</linearGradient>
	<path
   class="st26"
   d="m 1429.6,1037.1 c 2.3,3.6 4.6,7.3 6.9,10.9 10.7,-3.9 25.7,-8 44,-9.2 21.2,-1.4 38.8,1.6 50.7,4.7 -10.1,-4.5 -24.6,-9.6 -42.6,-11.7 -25.5,-2.9 -46.5,1.6 -59,5.3 z"
   id="path62"
   style="fill:url(#SVGID_26_)" />
	<linearGradient
   id="SVGID_27_"
   gradientUnits="userSpaceOnUse"
   x1="1414.6378"
   y1="996.63831"
   x2="1456.8506"
   y2="996.63831">
		<stop
   offset="0"
   style="stop-color:#98764D"
   id="stop63" />
		<stop
   offset="1"
   style="stop-color:#B29762"
   id="stop64" />
	</linearGradient>
	<polygon
   class="st27"
   points="1456.9,1004.4 1417.6,988.9 1414.6,1001.2 "
   id="polygon64"
   style="fill:url(#SVGID_27_)" />
</g><g
     id="Слой_4"
     transform="translate(-515.14639,-54.2)">
	<g
   id="g84">
		<linearGradient
   id="SVGID_28_"
   gradientUnits="userSpaceOnUse"
   x1="1135.6512"
   y1="1069.4257"
   x2="1564.5874"
   y2="1651.5533">
			<stop
   offset="0"
   style="stop-color:#98764D"
   id="stop65" />
			<stop
   offset="1"
   style="stop-color:#B29762"
   id="stop66" />
		</linearGradient>
		<path
   class="st28"
   d="m 1437.3,1430 c -6.3,-23 -12.6,-48.5 -16.1,-62.4 -8,4.6 -16.5,9.2 -25.3,13.8 -18.2,9.4 -35.7,17.3 -52.3,24 2.7,14.9 7.5,36.1 18.1,60 z"
   id="path66"
   style="fill:url(#SVGID_28_)" />
		<linearGradient
   id="SVGID_29_"
   gradientUnits="userSpaceOnUse"
   x1="1204.0214"
   y1="1019.0478"
   x2="1632.9575"
   y2="1601.1754">
			<stop
   offset="0"
   style="stop-color:#98764D"
   id="stop67" />
			<stop
   offset="1"
   style="stop-color:#B29762"
   id="stop68" />
		</linearGradient>
		<path
   class="st29"
   d="m 1344,1170.4 c -13.7,10 -27,18.5 -39.4,25.5 3.5,11.6 6.9,27 11.5,51.3 l 67.6,-39.2 c -2,-7.2 -3.8,-12.8 -5.9,-18.2 -1.9,-4.8 -6.8,-17.7 -16.2,-33 -5.6,4.5 -11.4,9 -17.6,13.6 z"
   id="path68"
   style="fill:url(#SVGID_29_)" />
		<linearGradient
   id="SVGID_30_"
   gradientUnits="userSpaceOnUse"
   x1="1214.7821"
   y1="1011.1188"
   x2="1643.7183"
   y2="1593.2465">
			<stop
   offset="0"
   style="stop-color:#98764D"
   id="stop69" />
			<stop
   offset="1"
   style="stop-color:#B29762"
   id="stop70" />
		</linearGradient>
		<path
   class="st30"
   d="m 1351.6,1142 c -8.8,-11.9 -20.1,-24.2 -34.3,-34.9 l -42.7,33 c 8.3,10.8 14.5,20.9 19.2,29.8 1.8,3.3 3.4,6.6 4.9,9.9 11.1,-6.4 23.1,-14.2 35.5,-23.6 6.2,-4.7 12,-9.5 17.4,-14.2 z"
   id="path70"
   style="fill:url(#SVGID_30_)" />
		<linearGradient
   id="SVGID_31_"
   gradientUnits="userSpaceOnUse"
   x1="1159.9226"
   y1="1051.5415"
   x2="1588.8588"
   y2="1633.6692">
			<stop
   offset="0"
   style="stop-color:#98764D"
   id="stop71" />
			<stop
   offset="1"
   style="stop-color:#B29762"
   id="stop72" />
		</linearGradient>
		<path
   class="st31"
   d="m 1390,1364.4 c 9.4,-4.9 18.4,-9.8 26.8,-14.8 -4,-16.5 -7.1,-30.2 -9.7,-41.9 -1.3,-5.9 -2.4,-11.1 -3.4,-15.9 -7.5,5.7 -15.8,11.4 -24.9,17.1 -17,10.5 -33.3,18.3 -47.6,24 2.8,16.1 5.8,34 9.2,54 15.6,-6.1 32.3,-13.5 49.6,-22.5 z"
   id="path72"
   style="fill:url(#SVGID_31_)" />
		<linearGradient
   id="SVGID_32_"
   gradientUnits="userSpaceOnUse"
   x1="1183.1707"
   y1="1034.4114"
   x2="1612.1068"
   y2="1616.5391">
			<stop
   offset="0"
   style="stop-color:#98764D"
   id="stop73" />
			<stop
   offset="1"
   style="stop-color:#B29762"
   id="stop74" />
		</linearGradient>
		<path
   class="st32"
   d="m 1328.2,1315.7 c 14.6,-5.7 30.7,-12.9 47.6,-22.1 9,-4.9 17.3,-9.9 25.1,-14.9 -3.1,-14.7 -5.5,-25.6 -9.7,-42 -0.6,-2.4 -1.2,-4.7 -1.8,-6.9 l -70.4,33.6 c 2.7,14.6 5.7,31.8 9.2,52.3 z"
   id="path74"
   style="fill:url(#SVGID_32_)" />
		<linearGradient
   id="SVGID_33_"
   gradientUnits="userSpaceOnUse"
   x1="1209.0253"
   y1="1015.3606"
   x2="1637.9614"
   y2="1597.4883">
			<stop
   offset="0"
   style="stop-color:#98764D"
   id="stop75" />
			<stop
   offset="1"
   style="stop-color:#B29762"
   id="stop76" />
		</linearGradient>
		<path
   class="st33"
   d="m 1300.8,1096.2 c -4.2,-2.4 -8.6,-4.6 -13.3,-6.7 -4.1,-1.8 -8.3,-3.4 -12.3,-4.8 l -29.9,23.5 c 7.4,6.8 14,13.5 19.7,20.1 z"
   id="path76"
   style="fill:url(#SVGID_33_)" />
		<linearGradient
   id="SVGID_34_"
   gradientUnits="userSpaceOnUse"
   x1="1130.8715"
   y1="1072.9476"
   x2="1559.8076"
   y2="1655.0753">
			<stop
   offset="0"
   style="stop-color:#98764D"
   id="stop77" />
			<stop
   offset="1"
   style="stop-color:#B29762"
   id="stop78" />
		</linearGradient>
		<path
   class="st34"
   d="m 1567.1,1631.7 c 1.9,-1.5 3.7,-3 5.4,-4.5 -14.5,-11.3 -27.4,-22.5 -38.8,-33.5 -3.5,3.1 -7.5,6.2 -11.8,9.3 -8.2,5.9 -16.2,10.4 -23.4,13.9 7.4,5 15.3,9.8 23.6,14.6 7.3,4.2 15.9,8.7 25.6,13.3 6.1,-3.5 12.7,-7.8 19.4,-13.1 z"
   id="path78"
   style="fill:url(#SVGID_34_)" />
		<linearGradient
   id="SVGID_35_"
   gradientUnits="userSpaceOnUse"
   x1="1191.0038"
   y1="1028.6396"
   x2="1619.9399"
   y2="1610.7673">
			<stop
   offset="0"
   style="stop-color:#98764D"
   id="stop79" />
			<stop
   offset="1"
   style="stop-color:#B29762"
   id="stop80" />
		</linearGradient>
		<path
   class="st35"
   d="m 1249.7,1078.4 c -17.3,-2.8 -32.9,-2.3 -44.8,-1 10.4,6.7 19.8,13.5 28.2,20.3 z"
   id="path80"
   style="fill:url(#SVGID_35_)" />
		<linearGradient
   id="SVGID_36_"
   gradientUnits="userSpaceOnUse"
   x1="1121.6962"
   y1="1079.7084"
   x2="1550.6323"
   y2="1661.8361">
			<stop
   offset="0"
   style="stop-color:#98764D"
   id="stop81" />
			<stop
   offset="1"
   style="stop-color:#B29762"
   id="stop82" />
		</linearGradient>
		<path
   class="st36"
   d="m 1410.1,1537 c 11.2,-2.6 24.2,-6.8 38.1,-13.4 7.7,-3.7 14.5,-7.6 20.5,-11.5 -10.1,-17.8 -16.9,-34.1 -21.6,-48.4 -1.8,-5.5 -3.9,-12.3 -6,-19.8 l -71.9,36.9 c 1.8,3.4 3.7,6.8 5.8,10.3 10.2,17 19.6,28.1 31.1,41.4 1.3,1.4 2.6,2.9 4,4.5 z"
   id="path82"
   style="fill:url(#SVGID_36_)" />
		<linearGradient
   id="SVGID_37_"
   gradientUnits="userSpaceOnUse"
   x1="1116.328"
   y1="1083.6639"
   x2="1545.2642"
   y2="1665.7916">
			<stop
   offset="0"
   style="stop-color:#98764D"
   id="stop83" />
			<stop
   offset="1"
   style="stop-color:#B29762"
   id="stop84" />
		</linearGradient>
		<path
   class="st37"
   d="m 1509.1,1591.5 c 4.5,-3.5 8.4,-7 11.8,-10.4 -20.3,-21.1 -35.5,-41.4 -47,-60.2 -5.6,4.5 -12,9.2 -19.3,13.7 -11.4,7.1 -22.4,12.4 -32.2,16.2 15.5,16.9 35.4,36.6 61.3,55.7 7.7,-3.3 16.5,-8.1 25.4,-15 z"
   id="path84"
   style="fill:url(#SVGID_37_)" />
	</g>
	<path
   class="st38"
   d="m 1502.6,1317.4 c -5.9,6.5 -14,17.1 -19.7,31.8 -8.6,21.9 -7.5,41.4 -6.3,51.4 -2.1,-6.4 -4.7,-16.4 -4.4,-28.9 0.3,-13.1 3.6,-23.4 6.1,-29.8 1.6,-3.8 4.8,-9.9 10.9,-15.7 5,-4.6 10,-7.3 13.4,-8.8 z"
   id="path85" />
	<linearGradient
   id="SVGID_38_"
   gradientUnits="userSpaceOnUse"
   x1="1483.3217"
   y1="1440.0983"
   x2="1654.8961"
   y2="1795.5026">
		<stop
   offset="0"
   style="stop-color:#DAA96F"
   id="stop85" />
		<stop
   offset="1"
   style="stop-color:#F1DDBA"
   id="stop86" />
	</linearGradient>
	<path
   class="st39"
   d="m 1607,1607 c -2.2,-10.2 -9,-18.9 -18.5,-23.4 -15.4,-7.3 -37.1,-21.2 -52.7,-46.1 -24.1,-38.6 -29,-96.8 4.3,-137.4 28.2,-34.4 69.9,-39.1 80.4,-40 -8.5,0.1 -57.3,1.2 -88.8,39 -34.8,41.8 -26.2,101.5 -3.1,138.9 15.3,24.7 36.4,38.9 51.1,46.4 7.2,3.7 12.3,10.5 14,18.4 l 14.8,70.6 11.7,45.7 c 3.7,14.4 1.1,29.8 -7.4,42.1 -6.3,9.1 -13.3,18.5 -21.1,28.1 -27,33.1 -55.1,57.7 -79.1,75.6 l 3.3,3.1 c 23.3,-17.4 49.2,-39.3 75.3,-66.6 9.3,-9.8 18,-19.5 25.9,-29 12.6,-15.1 17.6,-35.1 13.5,-54.4 -7.9,-37 -15.8,-74 -23.6,-111 z"
   id="path86"
   style="fill:url(#SVGID_38_)" />
	<linearGradient
   id="SVGID_39_"
   gradientUnits="userSpaceOnUse"
   x1="1473.6401"
   y1="1747.4558"
   x2="1572.1581"
   y2="1747.4558">
		<stop
   offset="0"
   style="stop-color:#DAA96F"
   id="stop87" />
		<stop
   offset="1"
   style="stop-color:#F1DDBA"
   id="stop88" />
	</linearGradient>
	<path
   class="st40"
   d="m 1545.2,1660.3 c 4.7,9.2 9.9,21.1 13.9,35.4 2.9,10.7 4.6,20.6 5.5,29.2 0.6,5.7 -0.8,11.3 -3.9,16.1 -5.2,8 -11.1,16.2 -17.5,24.5 -23.2,29.7 -47.8,52.1 -69.5,68.5 l 6,0.7 c 19.4,-14 41.9,-33.1 63.9,-58.7 7.9,-9.2 15,-18.3 21.2,-27.1 6.3,-8.8 8.7,-19.9 6.9,-30.6 -1.6,-9.2 -3.8,-19 -6.7,-29.3 -2.5,-8.6 -5.2,-16.5 -8,-23.8 -4.1,-1.6 -7.9,-3.3 -11.8,-4.9 z"
   id="path88"
   style="fill:url(#SVGID_39_)" />
	<linearGradient
   id="SVGID_40_"
   gradientUnits="userSpaceOnUse"
   x1="1742.567"
   y1="1651.7175"
   x2="1913.6157"
   y2="1651.7175">
		<stop
   offset="0"
   style="stop-color:#DAA96F"
   id="stop89" />
		<stop
   offset="1"
   style="stop-color:#F1DDBA"
   id="stop90" />
	</linearGradient>
	<path
   class="st41"
   d="m 1888,1636.7 c -9.8,0.9 -18.3,2.5 -26.3,4.6 2.3,-2 4.7,-4.6 6.9,-7.8 5.2,-7.3 7.1,-14.3 7.9,-18.4 -1.9,4.5 -5.3,11.2 -11.3,17.9 -4.7,5.2 -9.5,8.8 -13.5,11.2 -8.6,2.9 -16.9,6.3 -25.8,9.9 2.5,-2.3 5.2,-5.2 7.7,-8.7 6.1,-8.5 8.4,-16.8 9.3,-21.6 -2.2,5.3 -6.2,13.1 -13.2,21 -7,7.8 -14.4,12.5 -19.4,15.3 0,0 0,0 0,0 -2.1,0.8 -4.2,1.5 -6.4,2.3 -6.8,2.3 -15.5,5 -25.9,7.6 4.8,-3.9 10.3,-9.2 15.3,-16.3 8.9,-12.5 12.3,-24.7 13.7,-31.7 -3.2,7.8 -9.1,19.3 -19.5,30.9 -8.9,9.9 -18.1,16.4 -25.2,20.6 -5.1,1 -10.6,2 -16.3,2.8 l -2.9,11.9 c 24.5,-5.9 43.6,-12.7 56.1,-17.6 27.8,-10.9 38.9,-18.8 63.3,-25.9 20.7,-6 38.2,-7.8 49.3,-8.4 -4.9,-0.2 -13.4,-0.5 -23.8,0.4 z"
   id="path90"
   style="fill:url(#SVGID_40_)" />
	<linearGradient
   id="SVGID_41_"
   gradientUnits="userSpaceOnUse"
   x1="1803.8074"
   y1="1330.0217"
   x2="2551.3818"
   y2="758.10681">
		<stop
   offset="0"
   style="stop-color:#DAA96F"
   id="stop91" />
		<stop
   offset="1"
   style="stop-color:#F1DDBA"
   id="stop92" />
	</linearGradient>
	<path
   class="st42"
   d="m 2913.7,222.1 c -28.2,6 -56.5,12.3 -84.4,19.5 l -10.5,2.6 -10.5,2.8 -20.9,5.6 -20.9,5.9 c -6.9,2 -13.9,3.9 -20.8,6.1 l -20.8,6.3 -5.2,1.6 -5.2,1.6 -10.3,3.3 -20.6,6.6 -20.5,7 c -27.4,9.3 -54.5,19.4 -81.5,29.8 -3.4,1.3 -6.7,2.6 -10.1,4 l -10.1,4 -20.1,8.1 -20,8.5 c -6.7,2.8 -13.3,5.6 -19.9,8.6 -53,23.3 -104.9,49 -156,76.2 l -38,21 -9.5,5.3 -9.3,5.5 -18.7,11 -18.7,11.1 -4.7,2.8 -4.6,2.9 -9.2,5.8 c -12.2,7.7 -24.5,15.4 -36.7,23.2 l -36.1,24.1 -9,6 c -3,2 -5.9,4.2 -8.9,6.2 l -17.7,12.5 -17.7,12.5 c -5.9,4.3 -11.6,8.6 -17.4,12.9 l -17.4,13 -8.7,6.5 c -2.9,2.2 -5.7,4.5 -8.6,6.7 -46,35.2 -90.1,72.7 -133,111.6 l -8.1,7.3 -7.9,7.4 -15.8,14.8 -7.9,7.4 -7.8,7.6 -15.5,15.2 -7.7,7.6 -7.6,7.7 -15.2,15.4 c -5.1,5.1 -10,10.4 -15,15.6 l -15,15.7 v 0 c -1.1,1.2 -1.6,2.8 -1.3,4.4 v 0 l 9.1,49.6 9.2,49.6 c 6.1,33 12.4,66.1 18.1,99.1 2.7,16.5 5.2,33.1 5.4,49.6 0.1,8.3 -0.4,16.6 -1.3,24.9 -0.9,8.3 -2.2,16.5 -3.9,24.7 -1.7,8.2 -3.9,16.2 -6.4,24.2 -2.4,8 -5.4,15.8 -8.5,23.6 -6.4,15.5 -14,30.5 -22.7,44.9 9.2,-14 17.4,-28.8 24.4,-44.1 6.9,-15.4 12.5,-31.4 16.5,-47.8 4,-16.4 6.5,-33.3 6.8,-50.3 0.2,-17.1 -1.9,-33.9 -4.2,-50.6 -2.4,-16.7 -5,-33.3 -7.8,-49.9 l -8.2,-49.7 -8.2,-49.7 -6.5,-39 c 65,23.4 129,50 191.3,79.9 31.6,15.1 62.9,31.1 93.7,47.9 30.8,16.8 61.3,34.3 91.1,52.7 29.9,18.4 59.4,37.5 88.4,57.3 29,19.8 57.4,40.5 85.3,61.9 55.8,42.7 109.4,88.3 160.6,136.5 -50.4,-49.1 -103.3,-95.6 -158.5,-139.3 -27.6,-21.8 -55.7,-43 -84.4,-63.4 -28.7,-20.4 -58,-40 -87.7,-59 -29.7,-19 -59.9,-37.1 -90.6,-54.4 -30.7,-17.3 -61.8,-33.9 -93.4,-49.6 -57.2,-28.6 -115.7,-54.4 -175.4,-77.5 74.8,-19.6 150.2,-36.8 226.1,-51.7 10.4,-2 20.8,-4.1 31.2,-6 l 31.3,-5.7 31.3,-5.4 c 5.2,-0.9 10.4,-1.8 15.7,-2.6 l 15.7,-2.5 15.7,-2.5 15.7,-2.4 c 10.5,-1.6 21,-3.2 31.5,-4.6 l 31.5,-4.4 31.5,-4 c 5.3,-0.7 10.5,-1.3 15.8,-1.9 l 15.8,-1.8 15.8,-1.8 15.8,-1.7 c 10.5,-1.1 21.1,-2.3 31.6,-3.3 10.6,-1 21.1,-2.1 31.7,-3 42.2,-3.8 84.6,-6.8 126.9,-9.1 42.4,-2.3 84.8,-3.8 127.2,-4.7 42.4,-0.8 84.9,-0.9 127.3,-0.3 -42.4,-1.3 -84.9,-1.9 -127.3,-1.7 -42.5,0.2 -84.9,1.1 -127.3,2.7 -42.4,1.7 -84.8,4 -127.2,7.1 -10.6,0.7 -21.2,1.6 -31.8,2.5 -10.6,0.8 -21.2,1.9 -31.7,2.8 l -15.9,1.4 -15.9,1.6 -15.9,1.6 c -5.3,0.5 -10.6,1.1 -15.8,1.7 l -31.7,3.6 -31.6,3.9 c -10.6,1.2 -21.1,2.7 -31.6,4.1 l -15.8,2.1 -15.8,2.3 -15.8,2.3 c -5.3,0.8 -10.5,1.5 -15.8,2.4 l -31.5,4.9 -31.4,5.2 c -10.5,1.7 -20.9,3.7 -31.4,5.5 -78.2,14.1 -156.1,30.6 -233.3,49.7 76.1,-77.1 157.2,-149.3 243.2,-215 2.8,-2.2 5.7,-4.4 8.5,-6.6 l 8.7,-6.4 17.3,-12.8 c 5.8,-4.3 11.5,-8.6 17.4,-12.8 l 17.6,-12.4 17.6,-12.4 c 2.9,-2.1 5.9,-4.2 8.8,-6.2 l 9,-6 35.9,-24 c 12.1,-7.8 24.3,-15.4 36.4,-23.1 l 9.1,-5.8 4.6,-2.9 4.6,-2.8 18.5,-11 18.5,-11.1 9.3,-5.5 9.4,-5.3 37.6,-21.1 4.7,-2.6 2.4,-1.3 2.4,-1.3 9.5,-5 19.1,-10 19.1,-10 4.8,-2.5 c 1.6,-0.8 3.2,-1.6 4.8,-2.4 l 9.7,-4.7 38.8,-19 4.8,-2.4 c 1.6,-0.8 3.3,-1.5 4.9,-2.3 l 9.8,-4.5 19.6,-9 c 52.4,-23.8 105.8,-45.4 160,-65 l 20.3,-7.4 20.4,-7 10.2,-3.5 5.1,-1.7 5.1,-1.7 20.5,-6.7 c 6.8,-2.3 13.7,-4.3 20.6,-6.5 l 20.6,-6.4 20.7,-6.1 10.4,-3 10.4,-2.9 20.8,-5.8 20.9,-5.5 10.5,-2.8 10.5,-2.6 21,-5.2 c 28.1,-6.7 56.2,-13 84.5,-18.8 -28.1,4.5 -56.5,9.8 -84.7,15.6 z"
   id="path92"
   style="fill:url(#SVGID_41_)" />
	<linearGradient
   id="SVGID_42_"
   gradientUnits="userSpaceOnUse"
   x1="1541.5598"
   y1="987.22668"
   x2="2289.1343"
   y2="415.3118">
		<stop
   offset="0"
   style="stop-color:#DAA96F"
   id="stop93" />
		<stop
   offset="1"
   style="stop-color:#F1DDBA"
   id="stop94" />
	</linearGradient>
	<path
   class="st43"
   d="m 1733.1,801.4 c 3.9,-0.2 18,-0.4 31.1,9.7 15,11.5 17.6,28 18,31.3 0.5,-2.9 1.6,-6.9 3.9,-11.2 1.6,-3 3.4,-5.3 4.9,-7.1 -2.9,-4.1 -12.6,-16.9 -30.5,-22 -11.9,-3.5 -22.2,-1.9 -27.4,-0.7 z"
   id="path94"
   style="fill:url(#SVGID_42_)" />
	<linearGradient
   id="SVGID_43_"
   gradientUnits="userSpaceOnUse"
   x1="1560.6124"
   y1="1012.1312"
   x2="2308.1868"
   y2="440.21631">
		<stop
   offset="0"
   style="stop-color:#DAA96F"
   id="stop95" />
		<stop
   offset="1"
   style="stop-color:#F1DDBA"
   id="stop96" />
	</linearGradient>
	<path
   class="st44"
   d="m 1741.5,866.4 c 1.2,-1.5 9.3,-11.2 22.3,-11.2 6.6,0 11.6,2.5 14.2,4 -1.5,-4.3 -3,-8.5 -4.5,-12.8 -3.1,-0.4 -7.4,-0.4 -12.1,1 -13.3,4.1 -18.9,16.7 -19.9,19 z"
   id="path96"
   style="fill:url(#SVGID_43_)" />
	<linearGradient
   id="SVGID_44_"
   gradientUnits="userSpaceOnUse"
   x1="1921.319"
   y1="1483.6263"
   x2="2668.8936"
   y2="911.71143">
		<stop
   offset="0"
   style="stop-color:#DAA96F"
   id="stop97" />
		<stop
   offset="1"
   style="stop-color:#F1DDBA"
   id="stop98" />
	</linearGradient>
	<path
   class="st45"
   d="m 2844.3,711.5 c 18.9,6 28.8,17.8 26.9,25.5 -1.5,5.9 -9.6,8.7 -11.9,9.5 4.5,-0.7 35.4,-4.9 55.8,16 5.9,6 9.4,12.6 11.6,18 1,-3.4 1.4,-6.6 1.2,-9.5 -1.7,-36.8 -78.4,-58.1 -83.6,-59.5 z"
   id="path98"
   style="fill:url(#SVGID_44_)" />
	<linearGradient
   id="SVGID_45_"
   gradientUnits="userSpaceOnUse"
   x1="1763.5577"
   y1="1277.4098"
   x2="2511.1323"
   y2="705.49487">
		<stop
   offset="0"
   style="stop-color:#DAA96F"
   id="stop99" />
		<stop
   offset="1"
   style="stop-color:#F1DDBA"
   id="stop100" />
	</linearGradient>
	<path
   class="st46"
   d="m 3081.2,185.2 c 9,-4.9 17.6,-4.9 20.8,-1 2.7,3.4 0.9,9.2 -0.4,13.2 -2.3,7.2 -6.6,12 -9.1,14.4 20.3,-24.6 52.8,-35.1 82.7,-26.9 41.4,11.4 54.2,52.4 54.9,54.8 -1.2,-6.8 -8.4,-41.8 -40.4,-62 -31.7,-20 -75,-17.2 -108.5,7.5 z"
   id="path100"
   style="fill:url(#SVGID_45_)" />
	<path
   class="st47"
   d="m 1746.2,1676.3 c 5.2,-13 10.3,-27.5 14.8,-43.3 6.7,-23.7 10.8,-45.7 13.3,-65 -0.9,18.7 -3.2,40.3 -8.2,64 -3.8,18 -8.4,34.2 -13.3,48.5 -2.2,-1.4 -4.4,-2.8 -6.6,-4.2 z"
   id="path101" />
	<linearGradient
   id="SVGID_46_"
   gradientUnits="userSpaceOnUse"
   x1="2200.3298"
   y1="1769.9327"
   x2="2600.55"
   y2="1769.9327">
		<stop
   offset="0"
   style="stop-color:#DAA96F"
   id="stop101" />
		<stop
   offset="1"
   style="stop-color:#F1DDBA"
   id="stop102" />
	</linearGradient>
	<path
   class="st48"
   d="m 2553.7,1843.4 c -7.8,-0.6 -15.5,-1.5 -23.2,-2.8 -3.9,-0.6 -7.7,-1.3 -11.5,-2 -3.8,-0.8 -7.6,-1.6 -11.4,-2.5 -30.4,-7.1 -59.3,-19.5 -86.1,-35.2 -3.3,-2 -6.7,-4 -9.9,-6.1 -1.6,-1 -3.2,-2.1 -4.9,-3.2 -1.6,-1.1 -3.2,-2.1 -4.8,-3.3 -6.4,-4.4 -12.6,-9.1 -18.6,-14 -12,-9.8 -23.4,-20.6 -36,-30.3 -6.3,-4.9 -12.8,-9.4 -19.5,-13.6 -2.7,-1.7 -10.2,-6.5 -20.5,-12 -10,-5.3 -23.7,-12 -41,-18.4 l -20.2,-5.4 c -2.2,3.3 -4.8,6.6 -7.8,10 -12.6,14.3 -27,22.5 -38,27.3 10.9,-2.6 24,-6.9 37.9,-13.8 7.3,-3.6 13.8,-7.5 19.5,-11.3 20.4,6.5 35.8,13.5 45.9,18.6 10.2,5.1 18.1,9.9 20.3,11.2 6.6,4 13.1,8.2 19.3,12.8 12.5,9.1 24.1,19.6 36.6,29.3 6.2,4.8 12.6,9.5 19.2,13.8 1.6,1.1 3.3,2.2 5,3.2 1.7,1 3.3,2.1 5,3.1 3.4,2 6.8,4 10.2,5.9 27.5,15.3 57.1,27.1 87.8,33.5 3.8,0.8 7.7,1.5 11.6,2.2 3.9,0.6 7.7,1.3 11.6,1.7 7.8,1.1 15.6,1.7 23.4,2.2 15.6,0.9 31.3,0.6 46.9,-0.7 -15.6,1.2 -31.2,1.1 -46.8,-0.2 z"
   id="path102"
   style="fill:url(#SVGID_46_)" />
</g><g
     id="Слой_5"
     transform="translate(-515.14639,-54.2)">
	<linearGradient
   id="SVGID_47_"
   gradientUnits="userSpaceOnUse"
   x1="561.08942"
   y1="1072.2736"
   x2="554.28082"
   y2="1229.8905">
		<stop
   offset="0"
   style="stop-color:#DAA96F"
   id="stop103" />
		<stop
   offset="1"
   style="stop-color:#F1DDBA"
   id="stop104" />
	</linearGradient>
	<path
   class="st49"
   d="m 517.9,1115 c -1.4,11.5 -3.9,45 15.6,80.4 20.1,36.6 51.2,52.3 61.6,57 -8.9,-9.9 -22,-26.9 -31,-51.4 -10.3,-28.3 -10.1,-53 -9,-66.9 -12.4,-6.4 -24.8,-12.7 -37.2,-19.1 z"
   id="path104"
   style="fill:url(#SVGID_47_)" />
	<linearGradient
   id="SVGID_48_"
   gradientUnits="userSpaceOnUse"
   x1="841.57898"
   y1="842.40778"
   x2="485.31812"
   y2="1255.8339">
		<stop
   offset="0"
   style="stop-color:#DAA96F"
   id="stop105" />
		<stop
   offset="1"
   style="stop-color:#F1DDBA"
   id="stop106" />
	</linearGradient>
	<path
   class="st50"
   d="m 770.6,908.2 c -0.1,4.4 -0.6,11.1 -3.1,18.6 -8.6,25.4 -32.5,38.3 -41.7,43.4 -30.9,17.2 -91.1,57 -174.5,112.1 75.9,-23.4 151.7,-46.8 227.6,-70.2 l 30.5,-85.5 z"
   id="path106"
   style="fill:url(#SVGID_48_)" />
	<linearGradient
   id="SVGID_49_"
   gradientUnits="userSpaceOnUse"
   x1="839.08301"
   y1="807.65997"
   x2="680.42688"
   y2="991.77393">
		<stop
   offset="0"
   style="stop-color:#DAA96F"
   id="stop107" />
		<stop
   offset="1"
   style="stop-color:#F1DDBA"
   id="stop108" />
	</linearGradient>
	<path
   class="st51"
   d="m 787.4,812.9 c -4.7,3.5 -24.5,18.9 -28.3,44.7 -2.3,16 2.4,30.5 4.3,35.7 3,8 5.2,9.6 7.1,14.8 3.5,9.4 4,24.5 -11,49.3 9.9,-18.8 19.7,-37.6 29.6,-56.5 -4.3,-6.9 -15,-26 -13.1,-51.8 1.4,-16.6 7.4,-29.2 11.4,-36.2 z"
   id="path108"
   style="fill:url(#SVGID_49_)" />
	<path
   class="st1"
   d="m 777.5,906.2 c -3.2,-4.8 -15.9,-25.6 -11.2,-53.1 3.7,-21.8 16.3,-35.4 21.1,-40.2 -2.3,4.6 -8.2,18.2 -4.8,35.1 2.1,10.2 6.8,17.6 9.9,21.6 -5,12.2 -10,24.4 -15,36.6 z"
   id="path109" />
	<linearGradient
   id="SVGID_50_"
   gradientUnits="userSpaceOnUse"
   x1="1107.6896"
   y1="1102.9673"
   x2="1059.7939"
   y2="1151.1909">
		<stop
   offset="0"
   style="stop-color:#DAA96F"
   id="stop109" />
		<stop
   offset="1"
   style="stop-color:#F1DDBA"
   id="stop110" />
	</linearGradient>
	<path
   class="st52"
   d="m 1139.1,1134.1 c -14.9,-2.5 -31,-4.7 -48.1,-6.3 -20.4,-1.9 -39.6,-2.6 -57.3,-2.7 3.7,-7.1 7.3,-14.3 11,-21.4 13.2,1.3 29.5,4.1 47.6,9.8 19.1,6.1 34.8,13.7 46.8,20.6 z"
   id="path110"
   style="fill:url(#SVGID_50_)" />
	<linearGradient
   id="SVGID_51_"
   gradientUnits="userSpaceOnUse"
   x1="1143.7072"
   y1="1081.856"
   x2="1094.6876"
   y2="1131.2113">
		<stop
   offset="0"
   style="stop-color:#DAA96F"
   id="stop111" />
		<stop
   offset="1"
   style="stop-color:#F1DDBA"
   id="stop112" />
	</linearGradient>
	<path
   class="st53"
   d="m 1182,1121.4 c -12.7,-4.9 -28.6,-9.8 -47.4,-12.8 -25.5,-4.1 -47.7,-3.4 -64.2,-1.5 -1.8,-8 -3.6,-16 -5.4,-24 l 46.5,-5.1 46.2,17.8 z"
   id="path112"
   style="fill:url(#SVGID_51_)" />
	<linearGradient
   id="SVGID_52_"
   gradientUnits="userSpaceOnUse"
   x1="739.02393"
   y1="1246.2373"
   x2="679.08759"
   y2="1306.5841">
		<stop
   offset="0"
   style="stop-color:#DAA96F"
   id="stop113" />
		<stop
   offset="1"
   style="stop-color:#F1DDBA"
   id="stop114" />
	</linearGradient>
	<path
   class="st54"
   d="m 799.7,1309.6 c -6.4,-0.8 -18.3,-3 -30.8,-11.1 -12.7,-8.2 -19.8,-18.4 -23.1,-23.9 -3.3,-10.5 -6.5,-21 -9.8,-31.5 l -39.1,-15.8 -10.2,15.8 -40.1,-11.2 -22.2,5.4 c 1.3,5.6 4,14.4 10.3,23.6 2.5,3.7 9,12.2 20.2,19.1 11.1,6.9 15.7,5.2 24.9,10.2 7.1,3.9 16.2,11.3 23.7,27.2 3.1,-8.3 6.2,-16.6 9.3,-24.9 6.8,5.9 31.4,25.8 64.1,22.8 8.9,-0.7 16.6,-3.1 22.8,-5.7 z"
   id="path114"
   style="fill:url(#SVGID_52_)" />
	<linearGradient
   id="SVGID_53_"
   gradientUnits="userSpaceOnUse"
   x1="1024.6211"
   y1="1150.0851"
   x2="843.65863"
   y2="1332.2872">
		<stop
   offset="0"
   style="stop-color:#DAA96F"
   id="stop115" />
		<stop
   offset="1"
   style="stop-color:#F1DDBA"
   id="stop116" />
	</linearGradient>
	<path
   class="st55"
   d="m 802.7,1250 c -6.8,-1.7 -18.7,-5.7 -21.1,-14.3 -3.9,-13.8 19.3,-30.9 32.9,-40.9 5.4,-4 20.9,-14.9 47,-24.3 6.2,-2.2 30.2,-10.9 53.9,-12.5 64.1,-4.3 116.6,43.9 134,60 38.5,35.4 56.7,73.3 58.5,72.2 1.6,-1 -13.9,-29.3 -35.2,-63.1 -26.1,-41.4 -50.3,-74.2 -68.4,-97.3 -45.2,-3.5 -90.4,-7 -135.5,-10.4 l -87.8,52 -24.3,60.5 4.2,18.1 z"
   id="path116"
   style="fill:url(#SVGID_53_)" />
	<path
   class="st1"
   d="m 1402.6,995.2 118,-61.3 c -52.1,-1.8 -104.2,-3.6 -156.3,-5.4 8.9,-2.5 19,-6 29.6,-10.7 8.4,-3.7 15.9,-7.6 22.5,-11.5 -6.5,1.8 -14.8,3.4 -24.5,3.8 -13.6,0.5 -25,-1.6 -32.9,-3.8 15.8,-8 33.6,-18.5 52.3,-32.2 20.9,-15.3 37.8,-30.8 51.1,-44.7 -20.8,9.2 -47.4,18.7 -79.2,24.8 -50.3,9.6 -93.4,6.8 -123.1,2.3 2.8,-5.2 7.1,-11.8 13.8,-18.1 13.1,-12.6 27.8,-17 35.2,-18.6 -15.9,-4.5 -33.8,-8.6 -53.6,-11.5 -33.7,-5 -63.9,-5.3 -88.9,-3.8 8.5,-6.7 18.8,-13.8 31.2,-20.2 29.2,-15.1 56.6,-19.8 75.3,-21.2 -38.4,-8.8 -80.5,-16.6 -126,-22.5 -30.4,-3.9 -59.4,-6.6 -87,-8.3 0,0 0,0 0,0 9.7,-6.7 21.5,-13.5 35.5,-19 49.5,-19.3 95.4,-10.4 116.9,-4.6 -28.9,-12.2 -78.4,-29.1 -141.1,-30.8 1.5,-5.8 3,-11.6 4.7,-17.5 28.1,-98.2 75,-173.1 114.9,-224.4 -57.3,44.8 -123.5,107.3 -183.1,192.3 -14.5,20.7 -27.5,41.1 -39.1,60.9 -20,5 -37.4,11.1 -51.8,17 3,-24.4 7.8,-50.8 15.1,-78.7 23.4,-89.4 63.8,-158.2 98.6,-205.8 -49.5,58.9 -105,136.5 -152.9,234.1 -24.2,49.3 -42.9,96.2 -57.4,139.4 -45.9,44.8 -52.2,74 -48.3,92.9 1.4,7 4.6,13.9 3.7,24.9 -1.8,23.5 -20.3,41.5 -36.5,53.3 l -181.9,114.2 c -16.1,-2.7 -31.3,5.1 -36.9,18 -5.9,13.6 1.3,26.8 2.2,28.4 -0.8,9.6 -1.3,29.4 8.3,51.6 8.8,20.2 21.7,32.7 28.9,38.8 6.6,1.1 16.6,2.3 28.6,1.5 16.6,-1.1 28.7,-5.4 33.7,-7.1 17.3,-6 44.4,-13.7 89.4,-24 -29.1,16.5 -58.2,33 -87.3,49.5 2,5.8 7.8,19.9 22.5,31.1 12.2,9.3 24.6,12 30.6,12.9 3.7,2.1 8.4,5.4 12.9,10.4 8.8,9.7 11.8,20.2 12.9,25.7 3,-3.6 8.9,-11.8 10.2,-23.7 0.6,-5.5 0.1,-10.3 -0.7,-13.8 5,6.4 14,16 28.1,23.1 25.9,13.1 50.9,8.3 58.7,6.5 -5.3,-2.3 -22,-10.4 -31.8,-29.4 -6.4,-12.4 -7.1,-24 -7,-30.1 2.7,1 5.6,1.9 8.9,2.6 13.8,2.8 25.8,0 33,-2.6 -12.6,2.4 -24,-3.2 -27.6,-12.1 -2.6,-6.6 -0.1,-13.2 0.8,-15.3 5.4,-6.5 10.9,-12.9 18.3,-19.3 0,0 5.5,-4.6 11.9,-8.9 52.5,-35.1 92.6,-40.7 92.6,-40.7 15.2,-2.1 42.8,-3.8 77,7.3 17.7,8.4 39.3,21 61.3,39.6 38,32.2 59.7,67.8 71.5,91.4 -3.5,-25.8 -10.8,-59.3 -26.6,-96 -4.5,-10.4 -9.2,-20 -14,-28.9 15.3,2.2 31.7,5.1 48.9,9 -6.5,-9.5 -14.2,-19.6 -23.2,-30.1 -8.4,-9.7 -16.7,-18.2 -24.5,-25.5 12.8,1.2 26.9,3.2 42,6.5 10,2.2 19.3,4.7 27.9,7.3 -4.7,-5.2 -10.7,-11.1 -18,-16.9 -8,-6.3 -15.7,-11.1 -22.3,-14.6 14.5,-0.9 35.6,-0.3 59.1,7.8 9.3,3.2 17.4,7.1 24.2,10.9 -0.6,-5.5 -2,-12.6 -5.1,-20.4 -2,-5.1 -4.3,-9.4 -6.5,-12.9 l 132.2,-123.4 z"
   id="path117" />
	<polygon
   class="st1"
   points="657,1191.5 675.2,1212.9 675.2,1184.3 694.8,1205.6 695.7,1179.1 718.3,1203.4 674,1230.3 624.3,1237.3 618.4,1208.7 643.1,1230.1 638.3,1199.7 658.9,1218.5 "
   id="polygon117" />
	<path
   class="st56"
   d="m 886.8,924.3 c -0.4,-3.2 0.8,-6.4 3.2,-8.6 6.1,-5.7 15.7,-13.2 29.1,-18.6 15.9,-6.4 30.1,-7 39,-6.6 2.3,0.1 4.4,1.2 5.6,3.1 4.6,6.8 5.4,12.7 5.6,15.7 0.9,16.9 -13.9,34.6 -37.2,42.1 -3.3,0.9 -8.1,1.8 -14,1.5 -3.4,-0.2 -11.8,-0.6 -18.8,-5.2 -9.1,-6 -11.7,-16.9 -12.5,-23.4 z"
   id="path118" />
	<radialGradient
   id="SVGID_54_"
   cx="917.44629"
   cy="891.57452"
   r="62.727001"
   gradientUnits="userSpaceOnUse">
		<stop
   offset="0"
   style="stop-color:#FFD797"
   id="stop118" />
		<stop
   offset="1"
   style="stop-color:#B78559"
   id="stop119" />
	</radialGradient>
	<path
   class="st57"
   d="m 886.8,922.8 c -0.4,-3.2 0.8,-6.4 3.2,-8.6 6.1,-5.7 15.7,-13.2 29.1,-18.6 15.9,-6.4 30.1,-7 39,-6.6 2.3,0.1 4.4,1.2 5.6,3.1 4.6,6.8 5.4,12.7 5.6,15.7 0.9,16.9 -13.9,34.6 -37.2,42.1 -3.3,0.9 -8.1,1.8 -14,1.5 -3.4,-0.2 -11.8,-0.6 -18.8,-5.2 -9.1,-6 -11.7,-16.9 -12.5,-23.4 z"
   id="path119"
   style="fill:url(#SVGID_54_)" />
	
		<ellipse
   transform="matrix(0.9791,-0.2034,0.2034,0.9791,-165.8072,207.0867)"
   class="st58"
   cx="924.59998"
   cy="910.20001"
   rx="11.7"
   ry="12.4"
   id="ellipse119" />
	<linearGradient
   id="SVGID_55_"
   gradientUnits="userSpaceOnUse"
   x1="908.44513"
   y1="899.11621"
   x2="922.35992"
   y2="941.62677">
		<stop
   offset="0"
   style="stop-color:#F5CB8E"
   id="stop120" />
		<stop
   offset="1"
   style="stop-color:#FFD797"
   id="stop121" />
	</linearGradient>
	<path
   class="st59"
   d="m 920.4,902 c -2.7,-1.5 -6,-1.2 -8.5,0.5 -8.4,5.8 -12.2,14.6 -10.1,21.5 1.4,4.6 5.1,7.4 7.4,8.8 1.5,0.5 5.8,2 10.2,0.1 5.8,-2.5 9.4,-9.6 8.3,-17.4 0,-1.1 -0.5,-9.8 -7.3,-13.5 0.1,0 0.1,0 0,0 z"
   id="path121"
   style="fill:url(#SVGID_55_)" />
	
		<linearGradient
   id="SVGID_56_"
   gradientUnits="userSpaceOnUse"
   x1="997.1554"
   y1="803.1311"
   x2="758.21393"
   y2="1080.4128"
   gradientTransform="matrix(0.9806,-0.1959,0.1959,0.9806,-160.001,195.0094)">
		<stop
   offset="0"
   style="stop-color:#98764D"
   id="stop122" />
		<stop
   offset="1"
   style="stop-color:#CEA55B"
   id="stop123" />
	</linearGradient>
	<path
   class="st60"
   d="m 920.1,855.7 c -38.9,16.7 -57.3,51.3 -62,61.1 -0.7,1.4 -1.4,2.9 -2.1,4.3 0.2,-7.4 1.1,-15.7 3,-24.7 4.3,-20.5 12.4,-36 18.6,-45.8 -7.4,8.5 -16.7,21.3 -24.3,38.4 -8.6,19.6 -11.4,37.3 -12.4,49.4 l -2.6,0.5 c -0.3,4.5 -1.1,10.9 -3.7,17.9 -6.2,16.9 -18.2,26.4 -17.7,26.8 0.4,0.4 11.7,-7.1 18.7,-20.1 1.6,-3 3.2,-6.6 6.9,-10.9 3.5,-4.1 7.1,-6.8 9.6,-8.4 2.1,0 4.9,-0.2 8.2,-1.3 0.4,-0.1 0.8,-0.3 1.2,-0.4 4.1,-1.5 6.3,-5.5 7,-6.9 4.2,-7.6 9.3,-21.9 13.7,-30 3.2,-6 6.6,-9.8 10.7,-14.4 21.3,-23.8 51.9,-29 55.5,-29.6 21.1,-3.3 38.3,1.4 47.3,4.6 -5.5,-5.1 -19.7,-17 -40.4,-18.5 -14.5,-0.8 -25.1,3.7 -35.2,8 z"
   id="path123"
   style="fill:url(#SVGID_56_)" />
	<path
   class="st61"
   d="M 977.9,887.7 956.3,874.4 912.7,889 885,910.3 V 924 c -0.6,0.7 -1.1,1.5 -1.6,2.4 -4.6,8.5 1,18.3 1.6,19.3 8,7 16,14 24,20.9 l 41.5,-9.2 29.4,-34.9 z m -12.8,29.7 c -4.3,15.4 -16.6,23.6 -20.2,26 -5,3.2 -9.7,5 -12.9,6 -7.7,2.3 -14.1,0.9 -17.8,0.2 -5.4,-1 -11.1,-2 -16.4,-6.2 -5.8,-4.6 -8.4,-10.9 -9.5,-15.7 -1.1,-4.5 1.9,-8.3 2.9,-10 2.1,-3.8 4.9,-6.3 9.2,-9.2 8.9,-6.2 16.9,-9.6 19.8,-10.8 0,0 14,-5.7 26.2,-6.7 3.3,-0.3 6.5,-0.1 6.5,-0.1 1.5,0.1 2.5,0.2 3.5,0.4 0,0 3.7,0.8 7,4.2 4.2,4.4 3.8,14.5 1.7,21.9 z"
   id="path124" />
	<linearGradient
   id="SVGID_57_"
   gradientUnits="userSpaceOnUse"
   x1="570.21033"
   y1="1135.947"
   x2="592.67853"
   y2="1100.7129">
		<stop
   offset="0"
   style="stop-color:#98764D"
   id="stop124" />
		<stop
   offset="1"
   style="stop-color:#CEA55B"
   id="stop125" />
	</linearGradient>
	<path
   class="st62"
   d="m 558.2,1134.1 c -0.7,-2.3 -1.2,-4.8 -1.5,-7.2 -0.2,-1.2 -0.2,-2.5 -0.3,-3.7 0,-1.2 0,-2.5 0,-3.8 0.3,-5 1.3,-10.1 3.4,-15 2.1,-4.9 5.4,-9.5 9.6,-13 3.9,-3.4 8.6,-6.5 14.3,-8.1 2.9,-0.8 6,-1.2 9.2,-0.8 3.2,0.4 6.3,1.5 9,3.2 2.7,1.7 4.9,3.9 6.6,6.3 1.7,2.4 2.9,5 3.7,7.6 0.5,1.3 0.8,2.6 1,4 0.3,1.3 0.4,2.7 0.5,4.1 0.1,2.8 -0.2,5.5 -0.9,8 -0.7,2.6 -1.8,4.9 -3.2,7.1 -1.4,2.1 -3,4 -5,5.6 1.7,-4.6 2.5,-9.2 2.3,-13.4 -0.1,-2.1 -0.4,-4.2 -1,-6.1 -0.3,-1 -0.6,-1.9 -1,-2.8 -0.4,-0.9 -0.9,-1.9 -1.4,-2.7 -2,-3.5 -4.5,-6.4 -7.3,-7.7 -2.8,-1.4 -5.9,-1.6 -9.3,-0.6 -1.7,0.5 -3.5,1.2 -5.2,2.1 -1.7,0.9 -3.5,2.1 -5.2,3.3 -3.2,2.3 -6,5.2 -8.4,8.6 -2.4,3.5 -4.3,7.4 -5.9,11.7 -1.6,4 -2.9,8.6 -4,13.3 z"
   id="path125"
   style="fill:url(#SVGID_57_)" />
	<linearGradient
   id="SVGID_58_"
   gradientUnits="userSpaceOnUse"
   x1="906.2688"
   y1="937.72083"
   x2="919.67322"
   y2="937.72083">
		<stop
   offset="0"
   style="stop-color:#F5CB8E"
   id="stop126" />
		<stop
   offset="1"
   style="stop-color:#FFD797"
   id="stop127" />
	</linearGradient>
	<path
   class="st63"
   d="m 906.3,935.2 c 0,-0.4 0.3,-0.6 0.6,-0.4 1.5,0.8 4,1.9 7.2,2.1 2,0.1 3.8,-0.2 5.1,-0.6 0.3,-0.1 0.6,0.2 0.4,0.5 -0.4,0.9 -1.2,2.3 -2.9,3.3 -1.5,0.8 -3,0.8 -3.6,0.8 -0.4,0 -3.1,0.1 -5.1,-2 -1.2,-1.4 -1.6,-2.8 -1.7,-3.7 z"
   id="path127"
   style="fill:url(#SVGID_58_)" />
	<linearGradient
   id="SVGID_59_"
   gradientUnits="userSpaceOnUse"
   x1="1103.0634"
   y1="1053.4263"
   x2="1294.9783"
   y2="1053.4263">
		<stop
   offset="0"
   style="stop-color:#98764D"
   id="stop128" />
		<stop
   offset="1"
   style="stop-color:#CEA55B"
   id="stop129" />
	</linearGradient>
	<path
   class="st64"
   d="m 1103.1,1055 c 21.4,-5.6 53.9,-11.4 93.2,-8.4 43.7,3.3 77.7,16 98.7,25.8 -8.4,-7.4 -20.5,-16.5 -36.7,-24 -24.4,-11.3 -46.7,-13.5 -60.3,-13.8 -10.8,-0.2 -23.3,0.4 -37.2,2.6 -24,3.7 -43.5,11 -57.7,17.8 z"
   id="path129"
   style="fill:url(#SVGID_59_)" />
	<linearGradient
   id="SVGID_60_"
   gradientUnits="userSpaceOnUse"
   x1="738.31232"
   y1="1171.3724"
   x2="753.14618"
   y2="1171.3724">
		<stop
   offset="0"
   style="stop-color:#98764D"
   id="stop130" />
		<stop
   offset="1"
   style="stop-color:#B29762"
   id="stop131" />
	</linearGradient>
	<path
   class="st65"
   d="m 750.6,1169.4 c 3.1,7.4 3.4,14.4 0.7,15.5 -2.7,1.1 -7.4,-4 -10.5,-11.4 -3.1,-7.4 -3.4,-14.4 -0.7,-15.5 2.7,-1.2 7.4,3.9 10.5,11.4 z"
   id="path131"
   style="fill:url(#SVGID_60_)" />
	<linearGradient
   id="SVGID_61_"
   gradientUnits="userSpaceOnUse"
   x1="719.40887"
   y1="1184.2235"
   x2="734.49829"
   y2="1184.2235">
		<stop
   offset="0"
   style="stop-color:#98764D"
   id="stop132" />
		<stop
   offset="1"
   style="stop-color:#B29762"
   id="stop133" />
	</linearGradient>
	<path
   class="st66"
   d="m 734.1,1194.5 c -0.5,0.4 -1.4,0.3 -3.5,1.4 -1.8,0.9 -2.1,1.5 -2.6,1.6 -3.4,0.3 -11.1,-24.9 -7.7,-26.4 3.4,-1.6 16.5,21 13.8,23.4 z"
   id="path133"
   style="fill:url(#SVGID_61_)" />
	<linearGradient
   id="SVGID_62_"
   gradientUnits="userSpaceOnUse"
   x1="756.60858"
   y1="1156.0605"
   x2="772.4649"
   y2="1156.0605">
		<stop
   offset="0"
   style="stop-color:#98764D"
   id="stop134" />
		<stop
   offset="1"
   style="stop-color:#B29762"
   id="stop135" />
	</linearGradient>
	<path
   class="st67"
   d="m 769.9,1152.1 c 1.2,2.8 4.7,10.8 0.8,16.5 -0.4,0.5 -2.8,4 -5.4,3.6 -7.1,-1 -11.5,-30.3 -6.6,-32.3 2.8,-1.1 8.6,6.3 11.2,12.2 z"
   id="path135"
   style="fill:url(#SVGID_62_)" />
	<linearGradient
   id="SVGID_63_"
   gradientUnits="userSpaceOnUse"
   x1="780.87903"
   y1="1141.1388"
   x2="795.12152"
   y2="1141.1388">
		<stop
   offset="0"
   style="stop-color:#98764D"
   id="stop136" />
		<stop
   offset="1"
   style="stop-color:#B29762"
   id="stop137" />
	</linearGradient>
	<path
   class="st68"
   d="m 792.6,1138.2 c 0.8,1.8 4.8,10.7 0.7,15.2 -0.4,0.5 -1.8,2.1 -3.5,1.9 -6.4,-0.5 -11.6,-26.6 -7.6,-28.4 2.4,-1 7.9,5.6 10.4,11.3 z"
   id="path137"
   style="fill:url(#SVGID_63_)" />
	
		<linearGradient
   id="SVGID_64_"
   gradientUnits="userSpaceOnUse"
   x1="808.2923"
   y1="1125.8373"
   x2="822.44739"
   y2="1125.8373"
   gradientTransform="matrix(0.991,0.134,-0.134,0.991,158.1122,-98.9715)">
		<stop
   offset="0"
   style="stop-color:#98764D"
   id="stop138" />
		<stop
   offset="1"
   style="stop-color:#B29762"
   id="stop139" />
	</linearGradient>
	<path
   class="st69"
   d="m 819.4,1123.8 c 2.6,7.1 2.2,13.1 0.6,13.9 -0.2,0.1 -0.9,0.4 -1.9,0.6 -0.9,0.2 -1.2,0.1 -2.1,0.3 -1.3,0.3 -1.6,0.8 -2.1,0.8 -1.4,0 -3.5,-5 -4.2,-13.1 -0.4,-4.5 -1.2,-13.8 1.3,-14.5 2.6,-0.6 6.6,7.2 8.4,12 z"
   id="path139"
   style="fill:url(#SVGID_64_)" />
	<linearGradient
   id="SVGID_65_"
   gradientUnits="userSpaceOnUse"
   x1="835.2876"
   y1="1116.7472"
   x2="845.56738"
   y2="1116.7472">
		<stop
   offset="0"
   style="stop-color:#98764D"
   id="stop140" />
		<stop
   offset="1"
   style="stop-color:#B29762"
   id="stop141" />
	</linearGradient>
	<path
   class="st70"
   d="m 844.7,1116.3 c 1.3,6 1.2,12 -1,12.9 -0.4,0.2 -1.5,0.4 -2.5,0.6 -0.8,0.1 -2.1,0.2 -2.6,0 -2.3,-0.5 -3.5,-6.5 -3.3,-12.7 0.1,-3.9 1,-13.3 3.5,-13.5 2.5,-0.2 5.1,8.8 5.9,12.7 z"
   id="path141"
   style="fill:url(#SVGID_65_)" />
	<linearGradient
   id="SVGID_66_"
   gradientUnits="userSpaceOnUse"
   x1="851.2326"
   y1="1110.0312"
   x2="858.59027"
   y2="1110.0312">
		<stop
   offset="0"
   style="stop-color:#98764D"
   id="stop142" />
		<stop
   offset="1"
   style="stop-color:#B29762"
   id="stop143" />
	</linearGradient>
	<path
   class="st71"
   d="m 858,1109.7 c 0.9,4.3 0.8,8.6 -0.7,9.3 -0.3,0.1 -1.1,0.3 -1.8,0.4 -0.6,0.1 -1.5,0.1 -1.9,0 -1.6,-0.4 -2.5,-4.6 -2.4,-9.1 0.1,-2.8 0.7,-9.5 2.5,-9.7 1.9,-0.1 3.7,6.3 4.3,9.1 z"
   id="path143"
   style="fill:url(#SVGID_66_)" />
	<linearGradient
   id="SVGID_67_"
   gradientUnits="userSpaceOnUse"
   x1="868.71051"
   y1="1104.0219"
   x2="873.3175"
   y2="1104.0219">
		<stop
   offset="0"
   style="stop-color:#98764D"
   id="stop144" />
		<stop
   offset="1"
   style="stop-color:#B29762"
   id="stop145" />
	</linearGradient>
	<path
   class="st72"
   d="m 872.9,1103.8 c 0.6,2.7 0.5,5.4 -0.4,5.8 -0.2,0.1 -0.7,0.2 -1.1,0.2 -0.4,0 -0.9,0.1 -1.2,0 -1,-0.2 -1.6,-2.9 -1.5,-5.7 0.1,-1.8 0.4,-5.9 1.6,-6 1.1,-0.1 2.3,4 2.6,5.7 z"
   id="path145"
   style="fill:url(#SVGID_67_)" />
	<linearGradient
   id="SVGID_68_"
   gradientUnits="userSpaceOnUse"
   x1="882.12677"
   y1="1099.9948"
   x2="885.31018"
   y2="1099.9948">
		<stop
   offset="0"
   style="stop-color:#98764D"
   id="stop146" />
		<stop
   offset="1"
   style="stop-color:#B29762"
   id="stop147" />
	</linearGradient>
	<path
   class="st73"
   d="m 885.1,1099.8 c 0.4,1.9 0.4,3.7 -0.3,4 -0.1,0.1 -0.5,0.1 -0.8,0.2 -0.3,0 -0.6,0 -0.8,0 -0.7,-0.2 -1.1,-2 -1,-3.9 0,-1.2 0.3,-4.1 1.1,-4.2 0.7,0 1.5,2.7 1.8,3.9 z"
   id="path147"
   style="fill:url(#SVGID_68_)" />
	<linearGradient
   id="SVGID_69_"
   gradientUnits="userSpaceOnUse"
   x1="891.91418"
   y1="1097.507"
   x2="894.11658"
   y2="1097.507">
		<stop
   offset="0"
   style="stop-color:#98764D"
   id="stop148" />
		<stop
   offset="1"
   style="stop-color:#B29762"
   id="stop149" />
	</linearGradient>
	<path
   class="st74"
   d="m 893.9,1097.4 c 0.3,1.3 0.2,2.6 -0.2,2.8 -0.1,0 -0.3,0.1 -0.5,0.1 -0.2,0 -0.4,0 -0.6,0 -0.5,-0.1 -0.8,-1.4 -0.7,-2.7 0,-0.8 0.2,-2.8 0.7,-2.9 0.6,-0.1 1.2,1.9 1.3,2.7 z"
   id="path149"
   style="fill:url(#SVGID_69_)" />
	<linearGradient
   id="SVGID_70_"
   gradientUnits="userSpaceOnUse"
   x1="899.62402"
   y1="1094.7189"
   x2="901.31873"
   y2="1094.7189">
		<stop
   offset="0"
   style="stop-color:#98764D"
   id="stop150" />
		<stop
   offset="1"
   style="stop-color:#B29762"
   id="stop151" />
	</linearGradient>
	<path
   class="st75"
   d="m 901.2,1094.6 c 0.2,1 0.2,2 -0.2,2.1 -0.1,0 -0.3,0.1 -0.4,0.1 -0.1,0 -0.3,0 -0.4,0 -0.4,-0.1 -0.6,-1.1 -0.6,-2.1 0,-0.7 0.2,-2.2 0.6,-2.2 0.4,0 0.8,1.5 1,2.1 z"
   id="path151"
   style="fill:url(#SVGID_70_)" />
	<path
   class="st1"
   d="m 674.4,1217.4 c 39.7,-14.7 64.6,-31 80.4,-43.7 7,-5.6 15.8,-13.4 30.6,-22 15.2,-8.8 18.1,-7.5 43.9,-20.7 13.1,-6.7 30.6,-16.3 30.6,-16.3 v 0 l 2.3,14 -162.1,106.5 z"
   id="path152" />
	<path
   class="st1"
   d="m 538.9,1193.2 c 5.4,10.6 14.5,25.1 29.3,39.1 9.5,9 19,15.5 26.9,20.1 -2.4,-5.3 -5.7,-14.8 -4.1,-26.2 0.4,-2.8 1,-5.4 1.8,-7.7 -2.5,-4.4 -6.5,-10.1 -13,-15.1 -16.6,-12.8 -36,-10.8 -40.9,-10.2 z"
   id="path153" />
	
		<linearGradient
   id="SVGID_71_"
   gradientUnits="userSpaceOnUse"
   x1="595.10107"
   y1="1173.6691"
   x2="1160.0923"
   y2="979.70209"
   gradientTransform="matrix(0.9992,0.04102093,-0.04102093,0.9992,45.4852,-35.2429)">
		<stop
   offset="0"
   style="stop-color:#98764D"
   id="stop153" />
		<stop
   offset="1"
   style="stop-color:#B29762"
   id="stop154" />
	</linearGradient>
	<path
   class="st76"
   d="m 1106.1,1024.7 c -28.2,0.3 -41.5,-7.7 -68.1,-10.2 -18.5,-1.7 -45.6,-0.9 -80.2,12.1 0.8,-0.8 1.7,-1.6 2.5,-2.5 4,-3.9 8,-7.6 12.2,-11 4.2,-3.3 8.6,-6.3 13,-8.9 17.9,-10.6 37.3,-16.1 56.6,-17 -19.2,-0.6 -38.9,3.9 -57.4,13.9 -4.6,2.5 -9.2,5.4 -13.6,8.7 -4.4,3.3 -8.6,7 -12.7,10.8 -4.1,3.8 -8.1,7.6 -12.2,11.3 -2,1.8 -4.1,3.7 -6.2,5.4 -2.1,1.7 -4.2,3.5 -6.3,5.1 -8.5,6.7 -17.2,12.6 -26.2,17.8 -9,5.2 -18.2,9.6 -27.5,13.6 -9.3,4 -18.7,7.8 -28.1,11.4 -9.4,3.7 -18.8,7.2 -28.2,10.1 l -3.5,1.1 -3.5,1 c -2.4,0.7 -4.7,1.2 -7.1,1.8 -4.8,1.1 -9.5,2 -14.3,2.9 -4.8,0.9 -9.8,1.9 -14.7,3.7 -4.9,1.8 -9.7,4.3 -14.3,7 -2.3,1.5 -4.6,2.8 -6.8,4.4 l -3.3,2.3 c -1.1,0.8 -2.2,1.7 -3.3,2.5 -2.2,1.6 -4.3,3.5 -6.5,5.2 -2.1,1.9 -4.2,3.7 -6.3,5.7 -8.3,7.8 -15.6,16.6 -24,23 -1,0.9 -2.1,1.6 -3.2,2.4 l -1.6,1.1 -1.6,1 c -1.1,0.7 -2.2,1.4 -3.3,2.1 l -3.4,1.9 c -1.1,0.7 -2.3,1.2 -3.4,1.8 l -3.4,1.7 c -2.3,1 -4.6,2.1 -6.9,3 -4.6,1.8 -9.4,3.3 -14.1,4.9 -4.8,1.5 -9.5,3.1 -14.3,4.8 -9.5,3.4 -18.9,7.1 -28.3,11.1 -4.7,2 -9.4,4 -14,6.1 -4.7,2.1 -9.3,4.3 -13.9,6.5 18.8,-7.5 37.7,-14.5 56.7,-20.4 4.8,-1.5 9.5,-2.9 14.3,-4.2 4.8,-1.4 9.6,-2.7 14.4,-4.4 2.4,-0.8 4.8,-1.8 7.2,-2.8 l 3.5,-1.6 c 1.2,-0.5 2.4,-1.1 3.5,-1.7 l 3.5,-1.9 c 1.2,-0.6 2.3,-1.4 3.5,-2.1 l 1.7,-1 1.7,-1.2 c 1.1,-0.8 2.3,-1.5 3.4,-2.4 4.5,-3.3 8.7,-7.1 12.7,-11.1 4,-4 7.9,-8 12,-11.7 2,-1.9 4.1,-3.6 6.1,-5.4 2.1,-1.7 4.2,-3.4 6.3,-4.9 1.1,-0.8 2.1,-1.6 3.2,-2.3 l 3.3,-2.2 c 2.2,-1.5 4.4,-2.8 6.6,-4.2 4.4,-2.6 8.9,-4.9 13.5,-6.5 4.6,-1.6 9.2,-2.6 14,-3.4 4.8,-0.8 9.7,-1.7 14.5,-2.8 2.4,-0.6 4.9,-1.1 7.3,-1.8 l 3.6,-1 3.6,-1.1 c 9.6,-3 19.1,-6.6 28.5,-10.4 9.4,-3.7 18.9,-7.5 28.2,-11.7 9.4,-4.2 18.7,-8.9 27.8,-14.3 4.5,-2.8 9.1,-5.6 13.5,-8.8 l 3.3,-2.4 c 1.1,-0.8 2.2,-1.7 3.3,-2.5 l 3.3,-2.5 3.2,-2.6 c 2.2,-1.7 4.2,-3.6 6.3,-5.4 0.1,-0.1 0.2,-0.2 0.3,-0.3 39.6,-19.5 70.4,-21.6 91.5,-19.8 23.1,2 34.9,8.6 60.2,8.6 32.1,0 58.2,-10.9 74.8,-19.8 -14,6.3 -35.8,14.1 -62.9,14.4 z"
   id="path154"
   style="fill:url(#SVGID_71_)" />
	<linearGradient
   id="SVGID_72_"
   gradientUnits="userSpaceOnUse"
   x1="973.74597"
   y1="910.00122"
   x2="901.68622"
   y2="993.62347">
		<stop
   offset="0"
   style="stop-color:#98764D"
   id="stop155" />
		<stop
   offset="1"
   style="stop-color:#CEA55B"
   id="stop156" />
	</linearGradient>
	<path
   class="st77"
   d="m 913.2,956.9 c 4.2,0.8 22.2,4 39.3,-7 10.4,-6.7 15.7,-15.5 18,-20.1 -1,4.2 -3.4,11.9 -10,18.7 -2.7,2.7 -5.4,4.7 -7.7,6.1 -3.9,1.7 -9.4,3.6 -16.3,4.4 -10.1,1.3 -18.4,-0.5 -23.3,-2.1 z"
   id="path156"
   style="fill:url(#SVGID_72_)" />
	<linearGradient
   id="SVGID_73_"
   gradientUnits="userSpaceOnUse"
   x1="826.77521"
   y1="682.9422"
   x2="1198.2603"
   y2="555.40771">
		<stop
   offset="0"
   style="stop-color:#DAA96F"
   id="stop157" />
		<stop
   offset="1"
   style="stop-color:#F1DDBA"
   id="stop158" />
	</linearGradient>
	<path
   class="st78"
   d="m 1078.8,544.9 c -50.6,56.4 -87.2,111.9 -113.5,159.3 -12.9,2.1 -35.5,7.4 -59.1,23 -26.1,17.3 -40.4,38.7 -47,50.3 16.2,-12.5 40.8,-27.4 73.2,-33.8 7.2,-1.4 14.1,-2.3 20.6,-2.8 30.1,-59.1 72.6,-128.2 132.7,-197.8 26.8,-31 53.6,-58.2 79.4,-82 -27.4,23.2 -56.8,50.9 -86.3,83.8 z"
   id="path158"
   style="fill:url(#SVGID_73_)" />
	<linearGradient
   id="SVGID_74_"
   gradientUnits="userSpaceOnUse"
   x1="789.70477"
   y1="719.53857"
   x2="957.16498"
   y2="662.04791">
		<stop
   offset="0"
   style="stop-color:#DAA96F"
   id="stop159" />
		<stop
   offset="1"
   style="stop-color:#F1DDBA"
   id="stop160" />
	</linearGradient>
	<path
   class="st79"
   d="m 820.4,809 c 23.9,-69.6 48.3,-124.2 66.6,-162 18.9,-38.9 38.5,-74.6 39.1,-74.3 0.6,0.3 -18.8,36.2 -36.5,79.1 -22.5,54.5 -34.3,101.2 -40.8,131.8 -4.3,2.9 -8.9,6.3 -13.6,10.4 -5.9,5.2 -10.8,10.3 -14.8,15 z"
   id="path160"
   style="fill:url(#SVGID_74_)" />
	<linearGradient
   id="SVGID_75_"
   gradientUnits="userSpaceOnUse"
   x1="1436.0529"
   y1="756.88593"
   x2="1248.1798"
   y2="974.90479">
		<stop
   offset="0"
   style="stop-color:#DAA96F"
   id="stop161" />
		<stop
   offset="1"
   style="stop-color:#F1DDBA"
   id="stop162" />
	</linearGradient>
	<path
   class="st80"
   d="m 1258.9,862.6 c 23.4,3.4 54.9,5.6 91.6,1.1 45.5,-5.5 81.6,-19.1 105.8,-30.5 -24.6,14.4 -61.7,31.8 -109.4,39.9 -19.7,3.3 -37.8,4.5 -53.8,4.5 -6.5,0 -12.9,-1.8 -18.4,-5.3 z"
   id="path162"
   style="fill:url(#SVGID_75_)" />
	<linearGradient
   id="SVGID_76_"
   gradientUnits="userSpaceOnUse"
   x1="1276.0059"
   y1="765.80872"
   x2="1177.3812"
   y2="880.25848">
		<stop
   offset="0"
   style="stop-color:#DAA96F"
   id="stop163" />
		<stop
   offset="1"
   style="stop-color:#F1DDBA"
   id="stop164" />
	</linearGradient>
	<path
   class="st81"
   d="m 1167.1,807.7 c 7.2,5 14.4,10 21.6,15 11.8,-3.2 25.8,-6.1 41.5,-7.5 29.1,-2.6 53.9,0.5 72.2,4.4 -20.5,-5.2 -45.1,-9.8 -73.2,-11.8 -23,-1.8 -43.9,-1.4 -62.1,-0.1 z"
   id="path164"
   style="fill:url(#SVGID_76_)" />
	<linearGradient
   id="SVGID_77_"
   gradientUnits="userSpaceOnUse"
   x1="1179.1337"
   y1="694.40741"
   x2="1075.1603"
   y2="815.06421">
		<stop
   offset="0"
   style="stop-color:#DAA96F"
   id="stop165" />
		<stop
   offset="1"
   style="stop-color:#F1DDBA"
   id="stop166" />
	</linearGradient>
	<path
   class="st82"
   d="m 1062.7,737.1 c 11,6.4 22,12.8 32.9,19.1 13.6,-1.3 27.6,-2.3 42.2,-3.1 24.9,-1.2 48.6,-1.3 70.8,-0.7 -20.6,-3.8 -42.6,-7.1 -65.9,-9.7 -28.3,-3.1 -55,-4.8 -80,-5.6 z"
   id="path166"
   style="fill:url(#SVGID_77_)" />
	<linearGradient
   id="SVGID_78_"
   gradientUnits="userSpaceOnUse"
   x1="537.21332"
   y1="1071.2422"
   x2="530.40479"
   y2="1228.8593">
		<stop
   offset="0"
   style="stop-color:#DAA96F"
   id="stop167" />
		<stop
   offset="1"
   style="stop-color:#F1DDBA"
   id="stop168" />
	</linearGradient>
	<path
   class="st83"
   d="m 522.7,1127 c -5.1,-11.5 -3.4,-25 4.4,-34.6 11.4,-14 29.3,-12 30.3,-11.8 -2.6,-1 -12.1,-4.2 -23.2,-0.4 -8.3,2.9 -13.5,8.2 -15.9,11.4 -0.8,1 -1.4,2.2 -1.8,3.5 -1.1,4 -2.3,11 -0.2,19.1 1.6,5.9 4.4,10.2 6.4,12.8 z"
   id="path168"
   style="fill:url(#SVGID_78_)" />
	
		<linearGradient
   id="SVGID_79_"
   gradientUnits="userSpaceOnUse"
   x1="627.89697"
   y1="1079.5505"
   x2="617.56842"
   y2="1089.95"
   gradientTransform="matrix(0.9966,-0.08202937,0.08202937,0.9966,-87.259,53.9538)">
		<stop
   offset="0"
   style="stop-color:#98764D"
   id="stop169" />
		<stop
   offset="1"
   style="stop-color:#CEA55B"
   id="stop170" />
	</linearGradient>
	<path
   class="st84"
   d="m 609.1,1075.5 c 0.6,0 11.7,-0.5 17.7,8.5 4.6,6.9 3,14.3 2.7,15.5 0.8,-1.2 3.6,-6.3 2.3,-12.8 -0.6,-2.8 -1.8,-5.1 -2.9,-6.6 -0.9,-1.2 -2.1,-2.2 -3.5,-2.7 -0.8,-0.3 -1.7,-0.6 -2.6,-0.9 -5.5,-1.5 -10.3,-1.4 -13.7,-1 z"
   id="path170"
   style="fill:url(#SVGID_79_)" />
	
		<linearGradient
   id="SVGID_80_"
   gradientUnits="userSpaceOnUse"
   x1="649.5813"
   y1="1069.8903"
   x2="642.11102"
   y2="1077.4117"
   gradientTransform="matrix(0.9966,-0.08202937,0.08202937,0.9966,-87.259,53.9538)">
		<stop
   offset="0"
   style="stop-color:#98764D"
   id="stop171" />
		<stop
   offset="1"
   style="stop-color:#CEA55B"
   id="stop172" />
	</linearGradient>
	<path
   class="st85"
   d="m 634.9,1064.9 c 0.4,0 8.4,-0.3 12.8,6.2 3.3,5 2.2,10.3 1.9,11.2 0.5,-0.9 2.6,-4.6 1.6,-9.3 -0.4,-2.1 -1.3,-3.7 -2.1,-4.8 -0.6,-0.9 -1.5,-1.6 -2.5,-2 -0.6,-0.2 -1.2,-0.5 -1.9,-0.7 -3.9,-1 -7.4,-0.9 -9.8,-0.6 z"
   id="path172"
   style="fill:url(#SVGID_80_)" />
	<linearGradient
   id="SVGID_81_"
   gradientUnits="userSpaceOnUse"
   x1="1174.0371"
   y1="944.42889"
   x2="1451.3743"
   y2="944.42889">
		<stop
   offset="0"
   style="stop-color:#98764D"
   id="stop173" />
		<stop
   offset="1"
   style="stop-color:#B29762"
   id="stop174" />
	</linearGradient>
	<path
   class="st86"
   d="m 1284.1,934.7 c 12.8,2 26.2,3.7 40.2,4.9 46.2,4.1 88.2,2.3 124.6,-2 -36.8,5.7 -76.6,10.3 -119.1,13.3 -55.8,3.8 -107.5,4.1 -154.4,2.3 26.8,-1.7 56,-5.6 87,-12.8 7.4,-1.9 14.6,-3.8 21.7,-5.7 z"
   id="path174"
   style="fill:url(#SVGID_81_)" />
	<path
   class="st1"
   d="m 880.4,926.6 c 9.1,-8 22.8,-18.1 41.1,-26.3 21.6,-9.7 41,-12.8 54.2,-13.9 -10.2,-1.7 -20.5,-3.5 -30.7,-5.2 l -36.8,9.3 z"
   id="path175" />
	<linearGradient
   id="SVGID_82_"
   gradientUnits="userSpaceOnUse"
   x1="889.36121"
   y1="897.45007"
   x2="960.51007"
   y2="897.45007">
		<stop
   offset="0"
   style="stop-color:#98764D"
   id="stop175" />
		<stop
   offset="1"
   style="stop-color:#CEA55B"
   id="stop176" />
	</linearGradient>
	<path
   class="st87"
   d="m 889.4,913 c 3.7,-5.6 9.6,-12.9 18.4,-19.2 3.2,-2.3 6.3,-4.1 9.2,-5.6 4.8,-1.8 10.6,-3.5 17.3,-4.7 10.3,-1.9 19.3,-1.8 26.3,-1.3 -8.7,0.3 -22.2,1.9 -37.3,8.3 -16.4,6.8 -27.6,16.2 -33.9,22.5 z"
   id="path176"
   style="fill:url(#SVGID_82_)" />
	<linearGradient
   id="SVGID_83_"
   gradientUnits="userSpaceOnUse"
   x1="987.21777"
   y1="878.14673"
   x2="1024.4385"
   y2="819.77777">
		<stop
   offset="0"
   style="stop-color:#98764D"
   id="stop177" />
		<stop
   offset="1"
   style="stop-color:#B29762"
   id="stop178" />
	</linearGradient>
	<path
   class="st88"
   d="m 902.6,833.9 c 20.5,-9.7 55.7,-23 100.3,-22.5 69.9,0.8 117.5,34.6 117.4,34.9 -0.1,0.3 -63.7,-41.4 -140.3,-29.3 -18,2.9 -32.8,8.1 -43.7,12.8 -11.2,1.3 -22.4,2.7 -33.7,4.1 z"
   id="path178"
   style="fill:url(#SVGID_83_)" />
	<linearGradient
   id="SVGID_84_"
   gradientUnits="userSpaceOnUse"
   x1="948.98151"
   y1="1091.1042"
   x2="972.77509"
   y2="1053.7914">
		<stop
   offset="0"
   style="stop-color:#98764D"
   id="stop179" />
		<stop
   offset="1"
   style="stop-color:#B29762"
   id="stop180" />
	</linearGradient>
	<path
   class="st89"
   d="m 939.2,1091.1 c 6.7,-3.6 16.6,-10 25.9,-20.6 13.5,-15.3 17.3,-32.5 18.6,-32 0.9,0.4 -1.7,10.8 -5.8,20.5 -2.1,4.8 -4.2,8.7 -5.9,11.5 -3,2.7 -6.5,5.6 -10.4,8.3 -8.1,5.7 -15.8,9.6 -22.4,12.3 z"
   id="path180"
   style="fill:url(#SVGID_84_)" />
</g></g>
</svg>
